<svg id="Capa_1" data-name="Capa 1" xmlns="http://www.w3.org/2000/svg" viewBox="0 0 1080 1080"><defs><style>.cls-1{fill:#fff;}</style></defs><path class="cls-1" d="M483,746.54a5,5,0,0,0-1.18-3.24c-1.48-1.75-3.92-1.95-7.07-.28-10.11,5.22-23.37,8-39.33,8.24-3.17,0-6.4,0-9.62-.17,20-49.47,37.81-92.62,52.9-128.26A27.43,27.43,0,0,0,481,612.75c0-1.78-.51-3-1.46-3.66l-.23-.15a14.83,14.83,0,0,0-6.79-1.16c-6.94.11-12.42,3.52-16.25,10.17-1.73,3.14-3.47,6.32-5.15,9.59a76.5,76.5,0,0,1-7,10.46c-17.59,25.06-33.29,47.66-46.6,67.14-12,16.41-20.9,28.19-26.59,35.09-7.55-2.18-13.38-3.71-17.38-4.45a105.09,105.09,0,0,0-21.46-2c-18.52.32-31.77,5.28-39.38,14.73a4.46,4.46,0,0,0-1.63,3.52,4.85,4.85,0,0,0,1.82,3.51,3.37,3.37,0,0,0,2.69,1,8.3,8.3,0,0,0,2.88-.69l.45-.28c6.66-5.49,13-8.34,18.81-8.42,5.62-.11,14.07,1.57,24.95,5,4.54,1.52,9.32,3.05,14.18,4.52-21.51,23-41.57,34.73-59.61,35.07l-1.61,0c-6.91-.16-11.62-5.23-14.35-15.61-1.09-4.27-2.69-6.64-4.84-7.29-2.74-.82-6.41.33-11.51,3.63-4.05,2.72-5.78,4.69-5.72,6.41-.41,5.6,2.79,11.7,9.85,18.49s14.7,10.07,23,9.91c.83,0,1.68-.09,2.49-.15A82.22,82.22,0,0,0,330.12,795c11.89-7.34,25.07-19,39.23-34.64a280.33,280.33,0,0,0,28.83,7.09c-.76,1.61-1.72,3.48-2.86,5.66-2.58,5.59-4.3,9.46-5.1,11.79-1,2.94-1.06,4.9,0,6.26l.32.4.41.15a12.41,12.41,0,0,0,4.62,1.14c7.91-.16,13.41-2.73,16.25-7.71.2-.37.75-1.2,6.82-16.52a118.35,118.35,0,0,0,34.48-6c5.16-1.79,14.66-6.16,28.32-12.87A3.27,3.27,0,0,0,483,746.54ZM435.43,672.9l-7.63,21.89c-7.22,20.4-14.36,38.72-21.21,54.46A188,188,0,0,1,383.4,744C398.12,725.64,415.62,701.76,435.43,672.9Z"/><path class="cls-1" d="M550.65,767.31l-.21-.54a2.4,2.4,0,0,0-2.26-1.25c-.57,0-1.36.19-5.2,2.08-18.28,9.55-31.2,14.5-38.46,14.75-.3,0-3,0-3-.76a3.8,3.8,0,0,1,.41-1.43l45-122,.06-.26a4.5,4.5,0,0,0-.79-3.61c-1.09-1.44-3.08-2.19-6-2.43-6.94-.53-12.43,2.81-16.42,9.76L490,752.13c-9.56,25.63-9.67,27-9.72,27.69a9.71,9.71,0,0,0,2.55,7.87c3,3.19,8.36,4.62,16.47,4.47q1.71,0,3.42-.12c3.23-.06,8.35-1.43,15.67-4.13a102,102,0,0,0,12.51-5.55c10.72-5.81,16-8.74,17.08-9.4A5.47,5.47,0,0,0,550.65,767.31Z"/><path class="cls-1" d="M653.48,763.52c-.7,0-1.92.3-5.41,2.09-18.68,9.93-22.85,11-23.72,11s-1-.08-1.06-1c0-2.3,2.25-9.84,13.69-33,.95-2,1.38-3.37,1.33-4.4,0-.78-.33-3.28-4.26-3.2a26.34,26.34,0,0,0-5.51.93c-1.85.46-5.31,2.55-15.52,14.68l-7.09,9.08a60.39,60.39,0,0,1-7.53,8.4c-6.19,5.37-12.89,8.21-19.94,8.46l-.22,0a5.15,5.15,0,0,1-4.22-1.5c-1-1.1-1.47-2.93-1.51-5.36-.11-6.14,3.5-13.48,10.72-21.72,7.88-8.9,16.31-13.57,25-13.72a10.13,10.13,0,0,1,5,1.81c2.7,1.66,4.49,2.36,5.8,2.34,1.89,0,4.53-1,8.21-2.89,5.08-2.63,6-3.92,6-5.14.1-2.29-1.42-4.24-4.65-5.82-3.49-1.74-8.56-2.44-14.85-2.24-13.67.5-27.81,6.68-42,18.36-14.59,12-21.57,22.36-21.39,31.74a19.41,19.41,0,0,0,3.39,10.79c3.3,4.6,8.27,6.89,14.84,6.78h0c9.86-.32,21.4-5.64,34.27-15.95l.1,5.56c.09,5.75,3.27,8.83,8.82,8.73,3.91-.08,8.59-1.24,14.46-3.63a156.59,156.59,0,0,0,26.74-13.6,5.6,5.6,0,0,0,2.68-5.78A2.11,2.11,0,0,0,653.48,763.52Z"/><path class="cls-1" d="M710.62,762.53c-.67,0-1.89.29-5.29,2.05-11.41,5.33-19.24,8.89-23.2,10.43a10,10,0,0,1-3.53,1h-.29a2.55,2.55,0,0,1,0-.29,10.27,10.27,0,0,1,0-1.39l17.91-47.78a7.62,7.62,0,0,0,.78-5.05l-.09-.39-.29-.33a4.76,4.76,0,0,0-3.85-1.65c-.93,0-2.77.51-9.76,3.7-2.12,1-5.8,4.88-15.55,27.61s-10.87,28.59-10.81,31.09c.08,4.41,4.06,6.7,11.86,6.71h0c1.14,0,3.69-.5,12.59-3.76a121.72,121.72,0,0,0,12.39-5.14c14-7.59,16.31-8.93,16.76-9.25a5.58,5.58,0,0,0,2.65-5.77A2.1,2.1,0,0,0,710.62,762.53Z"/><path class="cls-1" d="M696.57,699.66a6.2,6.2,0,0,0,1.93.24c2.76,0,5.69-1.77,9-5.38q3.72-4.35,3.79-11.48c.05-2.24.07-9.1-4.71-10.51-2.43-1-5.5.17-9.47,3.72-3.72,3.39-5.62,7.2-5.67,11.37C691.28,694.43,693,698.5,696.57,699.66Z"/><path class="cls-1" d="M820.72,762.48a2.11,2.11,0,0,0-2.27-1.84c-.74,0-1.92.31-5.37,2.09-18.71,9.92-22.86,11-23.79,11s-1-.11-1-1c-.06-2.29,2.29-9.84,13.63-33a11,11,0,0,0,1.37-4.41c0-.77-.32-3.27-4.24-3.21a28.43,28.43,0,0,0-5.54,1c-1.89.43-5.32,2.53-15.5,14.68l-7.07,9.08a58.16,58.16,0,0,1-7.6,8.38c-6.18,5.38-12.86,8.23-19.87,8.45l-.26.05A5.1,5.1,0,0,1,739,772.2c-1-1.09-1.49-2.93-1.52-5.35-.13-6.14,3.54-13.41,10.72-21.73,7.91-8.89,16.29-13.56,25-13.71a10.3,10.3,0,0,1,5.1,1.82c2.69,1.66,4.43,2.35,5.78,2.33,1.85,0,4.52-1,8.19-2.9,5.08-2.64,6-3.92,6-5.12.16-2.28-1.4-4.24-4.63-5.84-3.55-1.72-8.54-2.43-14.89-2.22-13.66.49-27.84,6.66-42,18.33-14.59,12-21.55,22.39-21.39,31.77a19.47,19.47,0,0,0,3.4,10.79c3.26,4.59,8.32,6.88,14.87,6.77h0c9.84-.33,21.36-5.64,34.25-15.95l.1,5.56c.09,5.74,3.22,8.81,8.86,8.73,3.81-.06,8.55-1.24,14.38-3.63a152.06,152.06,0,0,0,26.78-13.61A5.54,5.54,0,0,0,820.72,762.48Z"/><polygon class="cls-1" points="630.87 824.92 636.1 835.1 647.47 836.54 639.39 844.7 641.52 855.94 631.33 850.82 621.23 856.27 623.01 844.98 614.68 837.1 625.99 835.28 630.87 824.92"/><polygon class="cls-1" points="581.46 825.78 586.7 835.96 598.08 837.42 590.06 845.55 592.18 856.79 581.91 851.67 571.91 857.14 573.6 845.84 565.28 837.98 576.6 836.14 581.46 825.78"/><polygon class="cls-1" points="532.07 826.65 537.32 836.83 548.69 838.27 540.62 846.42 542.77 857.66 532.52 852.54 522.49 858.02 524.24 846.7 515.91 838.85 527.17 837 532.07 826.65"/><polygon class="cls-1" points="482.72 827.51 487.98 837.69 499.3 839.12 491.27 847.27 493.41 858.54 483.18 853.39 473.12 858.87 474.87 847.57 466.53 839.7 477.8 837.85 482.72 827.51"/><polygon class="cls-1" points="433.32 828.37 438.56 838.55 449.91 839.99 441.87 848.15 444.02 859.4 433.74 854.26 423.74 859.74 425.48 848.42 417.17 840.56 428.42 838.73 433.32 828.37"/><path class="cls-1" d="M729.4,387.6A189.16,189.16,0,0,0,598.84,229a173.44,173.44,0,0,0-26.26-6.24c-4.43-.83-8.92-1.2-13.38-1.73l-6.72-.44-3.37-.21-3.36,0c-1.39,0-2.79,0-4.18,0h-3.14c-1.39,0-2.79,0-4.18,0l-3.36,0-3.37.21-6.72.44c-4.46.53-8.95.9-13.38,1.73A173.44,173.44,0,0,0,481.16,229,189.16,189.16,0,0,0,350.6,387.6c-4.16,36,1.85,73.34,18.08,105.89a191.91,191.91,0,0,0,72.59,79.16A207.13,207.13,0,0,0,465.46,585a198.12,198.12,0,0,0,25.7,8.79,196.31,196.31,0,0,0,97.68,0,198.12,198.12,0,0,0,25.7-8.79,207.13,207.13,0,0,0,24.19-12.38,191.91,191.91,0,0,0,72.59-79.16C727.55,460.94,733.56,423.61,729.4,387.6Zm-25.95,102A183.11,183.11,0,0,1,541.88,592.5h-3.76a183.44,183.44,0,0,1-179-203.94A188,188,0,0,1,363.73,363a179.93,179.93,0,0,1,20-47.84,208.24,208.24,0,0,1,14.87-21.35,183.86,183.86,0,0,1,84.42-59.13A186.33,186.33,0,0,1,540,224.76a186.33,186.33,0,0,1,57,9.92,183.86,183.86,0,0,1,84.42,59.13,208.24,208.24,0,0,1,14.87,21.35,179.93,179.93,0,0,1,20,47.84,188,188,0,0,1,4.66,25.56A185.45,185.45,0,0,1,703.45,489.64Z"/><path class="cls-1" d="M690.6,333.36a3.92,3.92,0,0,0-1.29-2,5.37,5.37,0,0,0-3.36-1.18,15.21,15.21,0,0,0-5,.78,38.59,38.59,0,0,0-4.23,1.61l-3.87,1.77c-2.59,1.16-5.15,2.4-7.71,3.62A223.05,223.05,0,0,0,635.56,355c-9.4,6.47-18.28,13.57-27,20.86s-17.11,14.85-25.51,22.43l-12.47,11.5c-4.15,3.81-8.21,7.83-12.46,11.41a205.93,205.93,0,0,1-44.87,30.49,139.56,139.56,0,0,0,24.49-23.34c14.77-17.76,26.26-38,35.51-59a310.34,310.34,0,0,1,14.82-30.55q8.08-15,16.85-29.61c1.45-2.43,2.93-4.85,4.44-7.21.74-1.17,1.54-2.37,2.27-3.39l.53-.72.7-.86c.47-.59.94-1.17,1.39-1.78a33.17,33.17,0,0,0,2.57-3.92,15.47,15.47,0,0,0,1.08-2.38,8.24,8.24,0,0,0,.41-1.46,5.84,5.84,0,0,0,.1-1.88,4.24,4.24,0,0,0-.19-1.11,8.25,8.25,0,0,0-.56-1.21,5.63,5.63,0,0,0-1.85-1.73,9.48,9.48,0,0,0-1.85-.64c-.52-.07-1-.13-1.55-.17a24.31,24.31,0,0,0-5,.6,139,139,0,0,0-16.87,4.34,99.91,99.91,0,0,0-16.07,7.16,104.18,104.18,0,0,0-27.21,22l-5.44,6.88-1.35,1.72c-.43.59-.8,1.22-1.2,1.83L537,329c-3.35,4.8-5.75,10.11-8.42,15.27l-1,2-.8,2-1.6,4.05c-1.05,2.7-2.16,5.38-3.16,8.1-1.6,5.55-3.38,11.06-4.78,16.66L513.81,394l-1.62,8.24-2.14,8.12a97.46,97.46,0,0,1-14.63,29.84,32.42,32.42,0,0,1-2.57,3.27l-2.7,3.17c-2,1.94-3.82,4-6,5.77a74.26,74.26,0,0,1-13.6,9.58,92.81,92.81,0,0,1-31.69,10.49c-2.23.33-4.47.58-6.72.78-2.2-.27-4.41-.52-6.61-.77,1.19-.5,2.37-1,3.53-1.6a56.55,56.55,0,0,0,18.13-14.39,73,73,0,0,0,11.67-19.68,88.1,88.1,0,0,0,5.75-21.39,35.51,35.51,0,0,0,8.23-.48,26.92,26.92,0,0,0,12.71-5.79,24.7,24.7,0,0,0,4.71-5.31c1.31-1.9,2.44-3.86,3.54-5.83a124.74,124.74,0,0,0,5.82-12.19c3.39-8.32,6.42-16.84,7.38-26.15a31.39,31.39,0,0,0-.12-7.18,29.5,29.5,0,0,0-1.71-7,19.51,19.51,0,0,0-3.86-6.45,14.93,14.93,0,0,0-6.63-4.27,17.89,17.89,0,0,0-7.72-.28,29.29,29.29,0,0,0-6.86,2.38,64.62,64.62,0,0,0-11.54,7.51,60.35,60.35,0,0,0-17,21.31,61.88,61.88,0,0,0-6,26.43,31.08,31.08,0,0,0,2.95,13.42c2,4.17,5.66,8,10.5,9.11.91.22,1.83.36,2.76.49a85.65,85.65,0,0,1-6.22,20.27A68.89,68.89,0,0,1,444,453.68a51.62,51.62,0,0,1-17.07,12.65,54.06,54.06,0,0,1-17,4.51l-2.39-.23c-1.6-3.46-3.1-7-4.44-10.53a160.71,160.71,0,0,1-6.88-24.21,142.62,142.62,0,0,1-2.94-25.08,147.07,147.07,0,0,1,5.24-43.74,76,76,0,0,1,13.35-14.75,101,101,0,0,1,18.38-12.24,129.23,129.23,0,0,1,20.54-8.36c7.16-2.32,14.31-4.73,21.41-7.44a135.31,135.31,0,0,0,20.86-9.64,59.25,59.25,0,0,0,17.63-15.48A65,65,0,0,0,520.61,278l.81-2.77a23,23,0,0,0,.62-3.12,16.46,16.46,0,0,0-.32-6.72,17.46,17.46,0,0,0-.74-1.8,10.08,10.08,0,0,0-1.22-1.69,8.16,8.16,0,0,0-3.51-2.18c-2.59-.84-4.79-.39-6.92-.1h0l-.14,0L496.64,263c-4.13,1.4-8.22,3-12.32,4.46-4,1.76-7.93,3.67-11.89,5.49l-11.36,6.49a156.71,156.71,0,0,0-63.83,80.13,159.4,159.4,0,0,0-9.39,51.25,147,147,0,0,0,8.54,51.71A153.65,153.65,0,0,0,512,560.34,145.81,145.81,0,0,0,538.21,563c2.2.11,4.39,0,6.59-.09l6.58-.25c4.37-.37,8.74-.89,13.09-1.47A152.08,152.08,0,0,0,655,511.57a61.64,61.64,0,0,0,4.24-5l4.09-5.13c1.29-1.78,2.5-3.6,3.75-5.4s2.55-3.56,3.61-5.48c2.2-3.79,4.56-7.46,6.41-11.49l2.94-5.92c.41-1.07.77-1.92,1.22-3.19a6.41,6.41,0,0,0,.3-1.05l.12-.59c0-.24,0-.52.05-.77a4.36,4.36,0,0,0-.43-2,3.93,3.93,0,0,0-1.95-1.79,5.75,5.75,0,0,0-3-.19,11.87,11.87,0,0,0-2,.51,27.9,27.9,0,0,0-3.27,1.36c-2.05,1-4,2.06-5.86,3.16-3.78,2.23-7.42,4.58-11,7s-7.16,4.83-10.71,7.27c-1.79,1.27-3.48,2.32-5.25,3.4s-3.64,2-5.55,2.92c-7.6,3.67-15.71,6.87-23.4,11a117.88,117.88,0,0,0-21.7,14.68,131.71,131.71,0,0,0-17.94,19,59.31,59.31,0,0,1-19,16,57.55,57.55,0,0,1-20.27,6.1,137.9,137.9,0,0,1-17.17-2.25,147,147,0,0,1-85.06-50.31,148.59,148.59,0,0,1-17.07-25.58c13.4.62,26.83,1.49,40.2,2.7,7.59.68,15.17,1.49,22.71,2.52a209.76,209.76,0,0,1,21.24,3.81,19.69,19.69,0,0,0,2.42,14.9c2.41,3.77,6.6,7.64,17.29,9.68a107.73,107.73,0,0,0,22.41,1.12c7.43-.58,13.81-.93,21.48-3.66,8.38-3,14.71-11.26,14.41-18.85-.14-3.77-2.09-10.54-13.47-13.61-22.09-6-56.73-8.54-63.76,8.13a213.07,213.07,0,0,0-21.45-5c-7.55-1.44-15.13-2.65-22.72-3.74-2.17-.31-4.34-.59-6.5-.88a190.1,190.1,0,0,0,25.21-4.26,204.12,204.12,0,0,0,26.65-8.23l3.47-.69v0l.23-.07c20.2-4,40.4-8.27,60.15-14.33,21.69-6.53,43.16-14.33,63.13-25.43,2.48-1.42,5-2.8,7.43-4.26l7.13-4.79a78.11,78.11,0,0,0,6.89-5.15l3.37-2.68c1.12-.9,2.12-1.95,3.19-2.92,8.44-7.74,15.82-17.29,20.09-28.05,4.68-10.23,8.86-20.9,13.87-30.71a30.92,30.92,0,0,1,2-3.37c.25-.37.85-1.06,1.34-1.83a8.06,8.06,0,0,0,1.15-2.78A5.1,5.1,0,0,0,690.6,333.36Zm-234,46.07A102.76,102.76,0,0,0,451.09,397a.32.32,0,0,1-.3.19.27.27,0,0,1-.23-.29c.37-6.21.45-12.45,2.62-18.4a63,63,0,0,1,8-17.13A72.65,72.65,0,0,1,474.68,347c4.89-4,11.26-6.61,17.16-8.86,0,0,.56-.21.72.13s-.42.56-.42.56A97.49,97.49,0,0,0,477.58,350a87,87,0,0,0-12.05,13.62A77,77,0,0,0,456.64,379.43Zm-49.8-32.64a64.25,64.25,0,0,1,6.63-13.17c6.66-10.13,12.48-16.42,21.47-24.5a291.39,291.39,0,0,1,23.15-18.29s14.59-10.21,41.76-16.29c0,0,.62-.16.75.13s-.45.51-.45.51c-5.49,2.43-11.09,4.63-16.48,7.26l-8,4.16c-1.33.7-2.67,1.37-4,2.1l-3.82,2.37-7.65,4.72-7.3,5.25-3.63,2.62-3.45,2.88c-2.28,1.94-4.64,3.78-6.84,5.8-8.86,8-16.3,17.31-23.25,27-2.64,3.7-6.63,8.9-9.45,13.31-.59.92-1.44,1.51-.94-.4S406.46,348.17,406.84,346.79Zm159,204.61c9.9-4.6,18.19-10.8,27.49-16.69s18-12,26.87-18.76c7.2-5.43,18-10.57,27.31-14.63,2.12-.92,1.77.73.94,1.27a290.56,290.56,0,0,0-23.94,18.07c-8.55,7.07-17.75,14.85-27,21.15-8.37,5.77-16.06,8.6-25.54,12.54-3.94,1.67-12.8,3.1-19.58,3.43-1.37.07-1.48-1,0-1.49A138.12,138.12,0,0,0,565.87,551.4Zm-67.75-56.93c2.44,4.39,7.32,6.12,11.78,7.83s9.32,2.26,14.25,2.91a143.21,143.21,0,0,0,14.69,1c5.07.1,10.26.15,15.41.15,0,0,1.24-.08,1.28.46,0,.33-1.15.67-1.15.67a114.69,114.69,0,0,1-15.28,2.16,88.79,88.79,0,0,1-15.56.21c-5.19-.56-10.48-1.4-15.37-3.72a23,23,0,0,1-3.52-2L503,503l-1.5-1.39c-1.89-1.94-3.56-4.28-3.85-7,0,0-.05-.3.18-.35S498.12,494.47,498.12,494.47Zm8.07-48.27c-5.38,4.65-9.05,6.42-15.15,9.85-.52-.5,3.1-4.13,4.18-5.11,2.73-3.1,5.73-5.29,8.76-7.93,11.91-10.4,20.64-26.79,21.73-28.52,2.19-3.44,3.47-6.55,5.43-10.22,7.73-14.75,10.86-30.2,16.68-46.06,3-7.91,6.85-17.09,10.44-24.73s13.11-17.3,17.82-19.47c0,0,.35-.15.5,0s-.1.43-.1.43a84.89,84.89,0,0,0-12.89,21.07c-3.4,7.65-6.12,15.66-8.92,23.64a389.75,389.75,0,0,1-19.09,46.95c-1.91,3.74-3.72,7.54-5.91,11.15-1.08,1.81-2,3.71-3.23,5.44l-3.56,5.18A107.64,107.64,0,0,1,506.19,446.2Zm149.48-67.39a223.72,223.72,0,0,1-17.48,19.31,253,253,0,0,1-21.48,17.41c-7.17,5-15.43,9.22-23.15,13.25-15.39,8.15-30.93,13.42-48.69,19.24a87.29,87.29,0,0,1-11.52,2.9c-5.87,1.15-12.84,1.06-12.41.31,7.13-2.24,14.55-5.34,21.57-7.85,26.23-9.4,31.63-12.38,47-20.07a223.92,223.92,0,0,0,22.55-13,223,223,0,0,0,20-16,217.22,217.22,0,0,0,18.08-18.08c5.58-6.55,12-12.57,15.65-20.41l.28.1A48.32,48.32,0,0,1,655.67,378.81Z"/></svg>