<svg id="Capa_1" data-name="Capa 1" xmlns="http://www.w3.org/2000/svg" viewBox="0 0 1080 1080"><defs><style>.cls-1{fill:#fff;}</style></defs><path class="cls-1" d="M158.1,535.43l20.32,7.84A62.48,62.48,0,0,1,169,561.5a38.7,38.7,0,0,1-13.16,11c-4.95,2.49-11,3.73-18.08,3.73q-12.93,0-20.46-4.54t-11.81-16q-4.27-11.41-1.68-29.26,3.48-23.76,15.8-36.54T151,477.19q15,0,22.48,7.33T183,507l-22.47,5.82a22,22,0,0,0-1.45-6.4,12.34,12.34,0,0,0-4.27-5.23,11.08,11.08,0,0,0-6.38-1.83q-8.32,0-13.94,8.1-4.23,6-6.1,18.86-2.32,15.93.82,21.83t10.38,5.91a14.5,14.5,0,0,0,11.32-4.77q4.29-4.77,7.24-13.85"/><path class="cls-1" d="M211.18,527.71,190.54,525a37.65,37.65,0,0,1,5-10.49,25.68,25.68,0,0,1,7.43-6.63,27.76,27.76,0,0,1,8.78-3.13,58.34,58.34,0,0,1,11.63-1.11A73.11,73.11,0,0,1,239,505a16,16,0,0,1,9.19,5.59,17.3,17.3,0,0,1,3.22,8.34,34.91,34.91,0,0,1,.12,10.29l-4.47,30.65a43.51,43.51,0,0,0-.61,7.68,35,35,0,0,0,1.21,7.09H227.05a24.22,24.22,0,0,1-1-4.09,33.16,33.16,0,0,1-.12-4.41,35.6,35.6,0,0,1-9.64,7.19,33.24,33.24,0,0,1-14,2.88q-10.28,0-14.76-5.76t-3.26-14.18a24.11,24.11,0,0,1,5.74-13q4.57-5.1,15.27-7.58,12.83-3,16.67-4.22a75,75,0,0,0,8.25-3.17c.48-3.27.25-5.55-.67-6.86s-2.8-2-5.61-2q-5.4,0-8.42,2.09c-1.56,1.09-3,3.14-4.3,6.14m17,14a102.7,102.7,0,0,1-10,3.46q-7,2.16-9.11,4.25a8.66,8.66,0,0,0-2.55,4.9,6.56,6.56,0,0,0,1.06,5.14c1,1.32,2.69,2,5,2a13.41,13.41,0,0,0,7.15-2.16A14.92,14.92,0,0,0,225.1,554a23,23,0,0,0,2.51-8.07Z"/><path class="cls-1" d="M268.47,505.23h20.6l-1.66,11.38c2.7-4.93,5.25-8.32,7.62-10.17a13,13,0,0,1,8.22-2.77q4.86,0,10.12,3.65l-9.58,19a13.16,13.16,0,0,0-5.88-2c-2.88,0-5.32,1.43-7.33,4.31q-4.29,6.07-6.72,22.74l-3.4,23.27H258.35Z"/><path class="cls-1" d="M323.08,505.23h20.55l-1.48,10.13q5.37-6.33,10.28-9a23.16,23.16,0,0,1,11.3-2.68q6.87,0,10.45,2.93a17.26,17.26,0,0,1,5.28,8.76q6.17-6.8,10.8-9.25a23,23,0,0,1,10.88-2.44q9.24,0,13.45,6.63t2.16,20.75l-6.36,43.59H388.33l5.76-39.54q.69-4.71-.48-7c-1.13-2.4-2.78-3.6-5-3.6a8.59,8.59,0,0,0-6.75,3.4q-2.86,3.39-4,10.91l-5.22,35.82H350.64l5.58-38.23a29.06,29.06,0,0,0,.47-6.21,7.38,7.38,0,0,0-1.82-4.22,5.07,5.07,0,0,0-3.84-1.6,8.71,8.71,0,0,0-6.75,3.47q-2.94,3.46-4.1,11.37L335,574.64H313Z"/><path class="cls-1" d="M425.86,540.13q2.31-15.89,12.68-26.17A34.75,34.75,0,0,1,464,503.67q17.24,0,24.29,12.08,5.65,9.75,3.58,24-2.34,16-12.61,26.24t-25.79,10.23q-13.85,0-21.15-8.5-9-10.51-6.46-27.58m22.06-.06q-1.35,9.27,1.11,13.72a7.78,7.78,0,0,0,7.16,4.44q4.77,0,8.45-4.37t5.11-14.05q1.32-9-1.12-13.43c-1.63-3-3.95-4.42-7-4.42q-4.81,0-8.6,4.48t-5.13,13.63"/><path class="cls-1" d="M507.51,505.23H528l-1.66,11.31q5.61-6.93,10.75-9.91a23.45,23.45,0,0,1,11.9-3q9.13,0,13.35,6.56t2.21,20.29l-6.45,44.12H536l5.57-38.17q1-6.54-.65-9.25a5.62,5.62,0,0,0-5.23-2.71,8.91,8.91,0,0,0-7,3.66c-2,2.44-3.48,6.82-4.41,13.14l-4.86,33.33h-22Z"/><path class="cls-1" d="M598.15,527.71,577.51,525a37.36,37.36,0,0,1,5-10.49,25.42,25.42,0,0,1,7.43-6.63,27.67,27.67,0,0,1,8.78-3.13,58.27,58.27,0,0,1,11.63-1.11A73.07,73.07,0,0,1,626,505a15.94,15.94,0,0,1,9.19,5.59,17.3,17.3,0,0,1,3.22,8.34,34.57,34.57,0,0,1,.12,10.29l-4.47,30.65a44.5,44.5,0,0,0-.61,7.68,35,35,0,0,0,1.21,7.09H614a25.25,25.25,0,0,1-1-4.09,33.59,33.59,0,0,1-.11-4.41,35.78,35.78,0,0,1-9.65,7.19,33.2,33.2,0,0,1-14,2.88q-10.28,0-14.76-5.76t-3.26-14.18a24.11,24.11,0,0,1,5.74-13q4.59-5.1,15.27-7.58c8.54-2,14.11-3.41,16.67-4.22a75,75,0,0,0,8.25-3.17c.48-3.27.26-5.55-.67-6.86s-2.8-2-5.61-2c-3.6,0-6.41.7-8.41,2.09-1.57,1.09-3,3.14-4.31,6.14m17.05,14a102.7,102.7,0,0,1-10,3.46q-7,2.16-9.1,4.25a8.62,8.62,0,0,0-2.56,4.9,6.6,6.6,0,0,0,1.07,5.14c1,1.32,2.68,2,5,2a13.39,13.39,0,0,0,7.15-2.16,15,15,0,0,0,5.26-5.26,23,23,0,0,0,2.5-8.07Z"/><path class="cls-1" d="M685.83,505.23h23.22l5.1,46.21,17.74-46.21h21.69L720,579.39q-5.75,12.69-10.45,17.14-6.64,6.27-18.37,6.28a100.14,100.14,0,0,1-14.47-1.58l1-18.55A27.34,27.34,0,0,0,688,584.51a10.3,10.3,0,0,0,6.61-2.16q2.71-2.16,5.2-7.72Z"/><path class="cls-1" d="M846.55,535.43l20.32,7.84a62,62,0,0,1-9.48,18.23,38.58,38.58,0,0,1-13.15,11c-5,2.49-11,3.73-18.08,3.73q-12.93,0-20.46-4.54t-11.8-16q-4.29-11.41-1.69-29.26Q795.69,502.74,808,490t31.47-12.77q15,0,22.48,7.33T871.4,507l-22.47,5.82a22,22,0,0,0-1.45-6.4,12.39,12.39,0,0,0-4.26-5.23,11.14,11.14,0,0,0-6.39-1.83q-8.33,0-13.93,8.1-4.23,6-6.11,18.86-2.32,15.93.81,21.83T828,554.05a14.5,14.5,0,0,0,11.32-4.77c2.87-3.18,5.27-7.8,7.24-13.85"/><path class="cls-1" d="M887.51,478.83h22l-2.64,18.1h-22Zm-3.85,26.4h22l-10.13,69.41h-22Z"/><path class="cls-1" d="M936.5,527.71,915.86,525a37.36,37.36,0,0,1,5-10.49,25.5,25.5,0,0,1,7.42-6.63,27.83,27.83,0,0,1,8.79-3.13,58.27,58.27,0,0,1,11.63-1.11A73.07,73.07,0,0,1,964.36,505a16,16,0,0,1,9.19,5.59,17.3,17.3,0,0,1,3.22,8.34,34.57,34.57,0,0,1,.12,10.29l-4.47,30.65a44.5,44.5,0,0,0-.61,7.68,35.72,35.72,0,0,0,1.21,7.09H952.37a25.25,25.25,0,0,1-1-4.09,33.59,33.59,0,0,1-.11-4.41,35.63,35.63,0,0,1-9.65,7.19,33.22,33.22,0,0,1-14,2.88q-10.27,0-14.77-5.76t-3.26-14.18a24.11,24.11,0,0,1,5.74-13q4.58-5.1,15.27-7.58,12.81-3,16.67-4.22a74.21,74.21,0,0,0,8.25-3.17c.48-3.27.25-5.55-.67-6.86s-2.8-2-5.61-2c-3.6,0-6.41.7-8.41,2.09q-2.35,1.63-4.31,6.14m17,14a102.7,102.7,0,0,1-10,3.46q-7,2.16-9.11,4.25a8.66,8.66,0,0,0-2.55,4.9,6.56,6.56,0,0,0,1.07,5.14c1,1.32,2.69,2,5,2a13.39,13.39,0,0,0,7.15-2.16,15,15,0,0,0,5.26-5.26,23,23,0,0,0,2.5-8.07Z"/></svg>