<svg id="Capa_1" data-name="Capa 1" xmlns="http://www.w3.org/2000/svg" viewBox="0 0 1080 1080"><defs><style>.cls-1{fill:#fff;}</style></defs><polygon class="cls-1" points="929.44 239.67 567.56 239.67 567.56 277.58 567.56 295.76 567.56 429.39 567.56 438.04 567.56 499.55 754.66 499.55 856.72 587.26 856.72 499.55 939.29 499.55 939.29 429.39 919.6 429.39 919.6 479.85 837.03 479.85 837.03 544.43 764.65 482.24 758.26 479.85 587.24 479.85 587.24 438.04 587.24 429.39 587.24 295.76 587.24 277.58 587.24 259.36 919.6 259.36 919.6 295.76 939.29 295.76 939.29 239.67 929.44 239.67"/><polygon class="cls-1" points="528.18 290.02 528.18 318.4 528.18 538.92 610.77 538.92 610.77 603.5 683.15 541.28 689.53 538.92 772.17 538.92 795.08 558.59 693.13 558.59 591.08 646.3 591.08 558.59 508.51 558.59 508.51 290.02 528.18 290.02"/><path class="cls-1" d="M214.2,775.69c-39.82,0-71-18.44-73.49-57.52h58c1,12.78,7.86,15,13.27,15s10.57-2.46,10.57-8.6c-.25-23.6-82.35-15-81.36-74.48,0-34.9,29.49-53.09,66.61-53.09,42,0,69.07,20.15,70.55,56.29H219.61c-.49-10.57-6.15-13.77-12.05-13.77-4.42,0-7.86,3-7.86,8.85,0,21.88,80.87,18.19,80.87,71.77C280.57,752.09,256.23,775.69,214.2,775.69Z"/><path class="cls-1" d="M392.4,633.61c32,0,57.28,26.3,57.28,71s-25.32,71-57.28,71c-18.43,0-31.46-8.11-38.1-20.65v85.29H299.74v-205H354.3v18.93C360.94,641.72,374,633.61,392.4,633.61ZM374.21,681.3c-11.3,0-20.15,8.11-20.15,23.35S362.91,728,374.21,728s20.16-8.11,20.16-23.35S385.52,681.3,374.21,681.3Z"/><path class="cls-1" d="M530.29,775.69c-41.54,0-70.79-26.8-70.79-71s29.25-71,70.79-71,70.79,26.3,70.79,69.81a78.8,78.8,0,0,1-.74,10.82h-87.5c.74,14,7.37,17.94,14.75,17.94a13.21,13.21,0,0,0,12.78-8.11h57.76C592.23,753.56,565.2,775.69,530.29,775.69Zm-17-85.3h32.45c0-9.58-7.38-14-15.49-14C521.2,676.38,515.05,680.81,513.33,690.39Z"/><path class="cls-1" d="M668.18,633.61c18.44,0,31.71,8.11,38.35,20.65V635.33h54.32V774H706.53V755c-6.64,12.54-19.91,20.65-38.35,20.65-31.95,0-57.27-26.31-57.27-71S636.23,633.61,668.18,633.61Zm18.19,47.69c-11.31,0-20.16,8.11-20.16,23.35S675.06,728,686.37,728s20.16-8.11,20.16-23.35S697.68,681.3,686.37,681.3Z"/><path class="cls-1" d="M785.42,592.07H840V687.2l34.66-51.87h63.41L886.2,705.14,939.29,774H874.16L840,718.66V774H785.42Z"/><path class="cls-1" d="M785.08,778.88v44h154v-44Zm35.64,31a8.63,8.63,0,0,0,7.36-3.87h6.37A16.09,16.09,0,0,1,819.89,815c-8,0-13-5.82-11.51-14.09a16.89,16.89,0,0,1,16.45-14.12c6.14,0,10.57,3.29,11.44,8.94H829.9c-.87-2.53-3-3.84-6-3.84-4.86,0-8.9,3.53-9.85,9S815.89,809.92,820.72,809.92Zm39.83,4.83H855l2.1-11.83H845.28l-2.09,11.83h-5.58l4.9-27.61h5.54l-2,11.43h11.82l2-11.43h5.54Zm11,0H866l4.9-27.61h5.54Zm20.09,0H877l4.91-27.61h5.54l-4.12,23.38h9.1Zm23.65-23.3H904.81l-1.26,7.16h9.29l-.75,4.27h-9.3l-1.3,7.48H912l-.79,4.39H895.12L900,787.1h16Z"/><path class="cls-1" d="M661.86,388.82c-5.33-1.78-8.87-4.34-10.85-8.09-1.77-3.35-1.77-5.72.4-7.1A100.92,100.92,0,0,0,670,380.34l1.38-20.51c2.17-26.63,6.31-47.34,12.43-62.34,6.11-15.18,13.61-22.88,22.48-22.88,8.09,0,14.8,6.32,20.12,18.74,5.33,12,7.89,25.64,7.3,41q-.6,25.15-11.83,40.83c-8.68,12.23-20.91,18.15-36.89,18-1.38,9.27-3.35,17.36-6.31,24.26q54.74,34.32,80.08,28c2.17,2.56,1.58,5.92-1.58,9.86-3.74,4.54-9.07,6.71-16.17,6.71-16.57,0-39.25-11.24-68.05-33.53-6.12,8.48-13.42,12.82-21.7,12.82-6.9,0-13.22-2.56-18.94-7.5a39.58,39.58,0,0,1-11-16.37c-2.17-6.51-2.57-11.83-1-16.37,1.78-4.93,5.72-7.49,11.44-7.49q9.18,0,35.51,16.56c.59-4.14,1.38-10.45,2-19.13ZM636.22,404.4c-2.17,0-3.35,1.38-3.16,4a23.52,23.52,0,0,0,3,8.87c4.54,8.49,9.67,12.83,15.19,12.83,6.12,0,10.45-2.77,13-8.49C649.83,410.12,640.36,404.4,636.22,404.4Zm50.1-22.88q16.57-1.77,24.85-17.16c4.74-8.48,7.11-19.53,7.3-32.74a102.72,102.72,0,0,0-4.14-32q-4.44-14.19-9.47-14.2c-8.09,0-13.81,24.26-16.77,73Z"/><path class="cls-1" d="M775.28,372.25A41.4,41.4,0,0,1,766.8,390c-4.54,5.33-9.86,8.29-15.58,8.49,0,15.78,3.55,23.67,10.85,23.67,8.48,0,16-9.67,22.68-29.2,1.38-1,2.76-.19,4.14,2.17a9.74,9.74,0,0,1,.79,8.48c-3.35,9.47-7.89,17-13.81,22.69q-8.58,8.28-18.34,8.28c-7.5,0-13.22-4.14-17-12.42-3.36-7.3-4.54-16.38-4-27.62.59-12.62,3.35-23.47,7.89-32.54,5.13-10.06,11.44-15.19,19.13-15.19,5.33,0,9.08,2.56,11.25,7.89C776.66,359.43,776.86,365.35,775.28,372.25Zm-23.67,19.33c6.11-3.55,10.26-10.45,12.82-20.71a29.1,29.1,0,0,0,1-10.45c-.2-3-1.18-4.54-2.57-4.54-2.17,0-4.34,3.75-6.7,11.24A103.42,103.42,0,0,0,751.61,391.58Z"/><path class="cls-1" d="M789.68,331.42a57.61,57.61,0,0,1,1-7.69,17.79,17.79,0,0,1,8.49-13c2-1.18,3.55-1.77,4.93-1.58q2.07,0,1.77,2.37c-.59,4.14-1.38,10.65-2.17,19.53,29-.59,46-.59,51.29-.4.39,3.75-1.78,5.53-6.71,5.72-10.26.59-25.45,1.38-45.37,2.17-4.93,52.67-5.91,78.9-3.35,78.9,1.38,0,2.76-1.18,4.34-3.55,4.93-7.3,8.48-14.2,10.25-20.91,1.19-1,2.57-.19,4,2a9.63,9.63,0,0,1,1,8.49,57.09,57.09,0,0,1-9.47,18.93c-4.93,6.91-10.06,10.26-15.39,10.26-7.29,0-10.84-8.48-10.25-25.25.59-19.72,2.17-42.41,4.73-68.25-15.19.59-23.67.79-25.44.79-3,0-4-1.18-3.16-3.74.79-2.37,2.57-3.75,5.33-4.34Z"/><path class="cls-1" d="M836.42,305.78c-1,5.32-4.73,11.05-11,17-2,1.78-3.75,2.57-5.52,2.37-1.59-.2-2.18-1-2-2.37,4.93-14,8.09-23.47,9.27-28.4,1-2.57,3.16-2.37,6.12.39S837.41,301.24,836.42,305.78Z"/><path class="cls-1" d="M888.1,403c4.14,6.51,3.55,13.41-1.38,20.71s-10.85,10.85-18,10.85a20.77,20.77,0,0,1-17.16-8.28c-4-4.74-6.12-10.46-6.71-17.36q-.58-8.58,2.37-14.2c2.17-3.75,5.13-5.33,8.87-4.54a66.59,66.59,0,0,0,4.15,22.88c3,7.5,6.31,11.24,10.45,11.24,3.35,0,5.52-1.57,6.12-4.93.59-3.15-.2-6.5-2.77-10.05L861.86,390.2c-5.52-8.68-8.48-16.57-8.68-23.67a20.87,20.87,0,0,1,6.12-16,18.23,18.23,0,0,1,13.41-5.72c6.32,0,11.25,1.78,14.6,5.53,2.76,3,4.14,6.9,4.14,11.64-.2,4.33-1.38,7.89-3.94,10.65-2.77,3-5.92,3.94-9.67,2.76q2.07-4.74,1.78-12.43-.6-8.88-5.92-8.87-5.62,0-6.51,7.69c-.79,5.52,1,11.63,5.52,18.14Z"/></svg>