<svg id="Capa_1" data-name="Capa 1" xmlns="http://www.w3.org/2000/svg" viewBox="0 0 1080 1080"><defs><style>.cls-1,.cls-2{fill:#fff;}.cls-2{fill-rule:evenodd;}</style></defs><path class="cls-1" d="M321,720v39.94q0,9.62,3.49,12.37a14,14,0,0,0,8.94,2.76v7.12H300.84v-7.12a12.88,12.88,0,0,0,7.25-2,9,9,0,0,0,3.91-4.68,30.67,30.67,0,0,0,.83-8.37V715.64q0-13.26-12.44-13.27v-7.11h29.36l47.64,53.21V716.6q0-14.22-12-14.23v-7.11h31.22v7.11a11.31,11.31,0,0,0-6.13,1.8,9.07,9.07,0,0,0-3.87,4.58,24.47,24.47,0,0,0-1,8.11V783.6h-8.2Z"/><path class="cls-1" d="M437.64,740.64v21.48q0,6.15.71,8c.47,1.26,1.73,2.3,3.78,3.14s5.17,1.25,9.36,1.25q8.53,0,12.53-2.12A19,19,0,0,0,471.2,765a39.4,39.4,0,0,0,4.59-11.34H483l-.58,28.53H402.9v-7.12h1.6q6.48,0,8.43-2.4c1.31-1.61,2-4.35,2-8.24V712.89c0-4-.68-6.74-2-8.3s-4.14-2.34-8.37-2.34h-1.6v-7h74l1.28,22.5H471a37.71,37.71,0,0,0-4.29-9.39q-2.37-3.5-4.78-4.49t-8.11-1H437.64v30h8.08q5.77,0,7.66-2.18c1.26-1.45,2-4.32,2.15-8.59h7.24v29.49h-7.24c0-.56.06-1,.06-1.22a14.3,14.3,0,0,0-1.57-6.73c-1-2-3.73-3-8-3Z"/><path class="cls-1" d="M521.11,746.54l-19.55-32.69q-4.62-7.7-7.18-9.59a11.21,11.21,0,0,0-6.8-1.89v-7.11h43.59v7.11q-7,0-7,3.79c0,1.41.88,3.56,2.63,6.47L541,736.22l13.08-21.79a12.18,12.18,0,0,0,2.05-6.35q0-5.7-8.4-5.71v-7.11h29.81v7.11a10.71,10.71,0,0,0-7.47,3.08q-3.3,3.07-9.45,13l-16.48,26.67v19.3c0,4,.68,6.74,2,8.3s4.14,2.34,8.37,2.34h1.35v7.12H509.25v-7.12h1.41q6.54,0,8.49-2.4c1.31-1.61,2-4.35,2-8.24Z"/><path class="cls-1" d="M579.9,702.37v-7.11h45.89v7.11h-1.47q-6.48,0-8.4,2.38c-1.28,1.58-1.92,4.33-1.92,8.27v34.29q0,9.36,1.54,14.75a17,17,0,0,0,6.73,9.16A20.57,20.57,0,0,0,634.71,775a22.5,22.5,0,0,0,13.49-4,18.36,18.36,0,0,0,7.28-9.84q1.66-5.8,1.66-16.19V715.71q0-13.34-12.88-13.34v-7.11h32.18v7.11a12.57,12.57,0,0,0-5.77,1.57,8.6,8.6,0,0,0-4.17,4.36,21,21,0,0,0-1.15,7.79v29a80.44,80.44,0,0,1-1.19,15.29,26.37,26.37,0,0,1-5.61,11.41,30.87,30.87,0,0,1-12.31,8.82,44.53,44.53,0,0,1-17.5,3.33,46.82,46.82,0,0,1-18-3.3q-8-3.3-12.21-8.34a27.27,27.27,0,0,1-5.74-11,57.35,57.35,0,0,1-1.51-14.07V713q0-6.16-2.11-8.4T579.9,702.37ZM608.49,678a9,9,0,0,1,2.59-6.34,8.56,8.56,0,0,1,6.51-2.76,8.83,8.83,0,0,1,6.41,2.66,9.09,9.09,0,1,1-12.89,12.82A8.88,8.88,0,0,1,608.49,678Zm27.24,0a9.13,9.13,0,1,1,2.69,6.45A8.78,8.78,0,0,1,635.73,678Z"/><path class="cls-1" d="M702.59,720v39.94q0,9.62,3.5,12.37a14,14,0,0,0,8.94,2.76v7.12H682.4v-7.12a12.85,12.85,0,0,0,7.24-2,8.9,8.9,0,0,0,3.91-4.68,30.19,30.19,0,0,0,.84-8.37V715.64q0-13.26-12.44-13.27v-7.11h29.36l47.63,53.21V716.6q0-14.22-12-14.23v-7.11h31.22v7.11a11.26,11.26,0,0,0-6.12,1.8,9.14,9.14,0,0,0-3.88,4.58,24.79,24.79,0,0,0-1,8.11V783.6h-8.21Z"/><path class="cls-1" d="M288.55,842.94h1.59V860.5h-1.59a13.55,13.55,0,0,0-2.41-5.29,21.56,21.56,0,0,1-16.9,7.47q-10.86,0-17.76-6.87t-6.9-18.2a31.7,31.7,0,0,1,3.18-14,21.53,21.53,0,0,1,8.87-9.74,25.23,25.23,0,0,1,12.5-3.18A22.26,22.26,0,0,1,279.32,813a20.46,20.46,0,0,1,6.82,5.12,18,18,0,0,0,1.92-6.51h1.63l.45,19h-1.59q-1.68-10.14-6.79-14.09a18.43,18.43,0,0,0-11.55-3.95A14.67,14.67,0,0,0,257.69,819q-4.65,6.4-4.64,18.31,0,11.26,5.06,17.29a15.85,15.85,0,0,0,12.61,6,19.43,19.43,0,0,0,8.25-2,14.34,14.34,0,0,0,6.67-6.64A25,25,0,0,0,288.55,842.94Z"/><path class="cls-1" d="M325.37,841.71H304.26c-.1,1.46-.15,2.55-.15,3.26q0,8,2.5,12a8.21,8.21,0,0,0,7.45,4,9.75,9.75,0,0,0,9.54-6h1.77a10.33,10.33,0,0,1-4.69,5.9,14.73,14.73,0,0,1-14.92.18,15.51,15.51,0,0,1-5.61-5.49,16.15,16.15,0,0,1-2.18-8.61A17.33,17.33,0,0,1,302.19,835a13.49,13.49,0,0,1,10.54-4.75q6,0,9.2,3.63A12.33,12.33,0,0,1,325.37,841.71Zm-6.47-1.48a10.86,10.86,0,0,0,.12-1.51,6.35,6.35,0,0,0-6.58-6.84q-6.74,0-8,8.35Z"/><path class="cls-1" d="M338.69,830.25h1a20.55,20.55,0,0,1,1,6.25,19.39,19.39,0,0,1,5.58-4.7,12.89,12.89,0,0,1,6.1-1.55,10.64,10.64,0,0,1,5.94,1.52,6.77,6.77,0,0,1,3,3.71,23.26,23.26,0,0,1,.67,6.42v9.47a58,58,0,0,0,.19,6.39,2.28,2.28,0,0,0,1.16,1.72,7.7,7.7,0,0,0,3.61.58v1.7h-15.5v-1.7h.7q2.67,0,3.48-.78a2.93,2.93,0,0,0,.93-1.81c.07-.69.1-2.73.1-6.1v-9.76a26.45,26.45,0,0,0-.34-5.13,4.84,4.84,0,0,0-1.9-2.72,6.18,6.18,0,0,0-3.9-1.18,9.25,9.25,0,0,0-5.15,1.61,17.05,17.05,0,0,0-4.64,4.82v12.36a56.85,56.85,0,0,0,.2,6.39,2.35,2.35,0,0,0,1.18,1.72,7.85,7.85,0,0,0,3.64.58v1.7h-15.3v-1.7a8.57,8.57,0,0,0,3.55-.52,2.3,2.3,0,0,0,1.24-1.58,47.8,47.8,0,0,0,.24-6.59v-9a53.29,53.29,0,0,0-.21-6.41,2.36,2.36,0,0,0-1.18-1.7,7.82,7.82,0,0,0-3.64-.58V832A47.86,47.86,0,0,0,338.69,830.25Z"/><path class="cls-1" d="M389.27,833.17h-9.13v18.31a27.54,27.54,0,0,0,.37,5.67,4.08,4.08,0,0,0,1.57,2.35,4.26,4.26,0,0,0,2.57.89c1.77,0,3.32-1,4.62-3l1.19.71a8,8,0,0,1-3.39,3.68,9.3,9.3,0,0,1-4.53,1.23,7.36,7.36,0,0,1-4.67-1.57,6.51,6.51,0,0,1-2.52-3.67,37.19,37.19,0,0,1-.5-7.4V833.17h-4.4v-1.7a7.67,7.67,0,0,0,5.43-2.55A12.28,12.28,0,0,0,379,822h1.18v9.5h9.13Z"/><path class="cls-1" d="M403.18,838a12.63,12.63,0,0,1,4.08-5.51,9,9,0,0,1,5.53-2.22,5,5,0,0,1,3.85,1.52,4.58,4.58,0,0,1,1.4,3.1,2.62,2.62,0,0,1-.72,1.85,2.3,2.3,0,0,1-1.75.78c-1.24,0-2.17-.92-2.81-2.74-.45-1.23-1.11-1.85-2-1.85-1.06,0-2.33.73-3.81,2.17a10,10,0,0,0-2.85,4.49,25.64,25.64,0,0,0-.62,6.39v5.41q0,4.85.12,6.1a2.56,2.56,0,0,0,1.06,1.92,5.94,5.94,0,0,0,3.29.67h1v1.7H392.9v-1.7h.77a6.07,6.07,0,0,0,3.17-.62,2.39,2.39,0,0,0,1.12-1.71,57,57,0,0,0,.19-6.36v-8.55q0-4.87-.13-6.12a2.62,2.62,0,0,0-1-1.92,5.78,5.78,0,0,0-3.3-.69h-.77v-1.66a52.13,52.13,0,0,0,9.1-2.18A24.63,24.63,0,0,1,403.18,838Z"/><path class="cls-1" d="M419.56,846.56a15.86,15.86,0,0,1,4.66-11.63,16.41,16.41,0,0,1,23,0,15.85,15.85,0,0,1,4.65,11.61q0,7.65-4.73,12A16.2,16.2,0,0,1,435.68,863a16,16,0,0,1-11.4-4.45Q419.56,854.07,419.56,846.56Zm6.14.18q0,8.07,2.63,11.3a10,10,0,0,0,14.77,0q2.56-3.22,2.57-11.3t-2.56-11.38a9.81,9.81,0,0,0-14.84,0Q425.69,838.72,425.7,846.74Z"/><path class="cls-1" d="M477.17,823.67h-1.7l.26-12.06H524.4l.25,12.06h-1.58a19.42,19.42,0,0,0-2.34-7.16,6.09,6.09,0,0,0-3.18-2.69,22.68,22.68,0,0,0-5.8-.51h-8.07v35.4a67,67,0,0,0,.28,7.72,4,4,0,0,0,1.5,2.74c.82.59,2.34.89,4.59.89h2.44v1.7h-25v-1.7h2.59a8.64,8.64,0,0,0,4.45-.82,3.77,3.77,0,0,0,1.6-2.53,54.38,54.38,0,0,0,.35-8v-35.4H489a29.13,29.13,0,0,0-6.51.47,5.8,5.8,0,0,0-3.12,2.79A19.86,19.86,0,0,0,477.17,823.67Z"/><path class="cls-1" d="M548.91,841.71H527.8c-.1,1.46-.15,2.55-.15,3.26q0,8,2.49,12a8.23,8.23,0,0,0,7.46,4,9.77,9.77,0,0,0,9.54-6h1.77a10.35,10.35,0,0,1-4.7,5.9,14.73,14.73,0,0,1-14.92.18,15.49,15.49,0,0,1-5.6-5.49,16.15,16.15,0,0,1-2.18-8.61A17.33,17.33,0,0,1,525.73,835a13.49,13.49,0,0,1,10.54-4.75q6,0,9.2,3.63A12.33,12.33,0,0,1,548.91,841.71Zm-6.47-1.48a10.72,10.72,0,0,0,.11-1.51,6.34,6.34,0,0,0-6.58-6.84q-6.74,0-8,8.35Z"/><path class="cls-1" d="M564.4,838a12.65,12.65,0,0,1,4.09-5.51,9,9,0,0,1,5.53-2.22,5,5,0,0,1,3.85,1.52,4.55,4.55,0,0,1,1.41,3.1,2.63,2.63,0,0,1-.73,1.85,2.3,2.3,0,0,1-1.75.78c-1.24,0-2.17-.92-2.81-2.74-.45-1.23-1.11-1.85-2-1.85-1.06,0-2.33.73-3.82,2.17a10.08,10.08,0,0,0-2.84,4.49,26,26,0,0,0-.63,6.39v5.41q0,4.85.13,6.1a2.56,2.56,0,0,0,1.06,1.92,5.94,5.94,0,0,0,3.29.67h1v1.7h-16.1v-1.7h.78a6,6,0,0,0,3.16-.62,2.4,2.4,0,0,0,1.13-1.71,59.84,59.84,0,0,0,.19-6.36v-8.55c0-3.25,0-5.29-.13-6.12a2.65,2.65,0,0,0-1-1.92,5.78,5.78,0,0,0-3.3-.69h-.78v-1.66a52.13,52.13,0,0,0,9.1-2.18A24.06,24.06,0,0,1,564.4,838Z"/><path class="cls-1" d="M612.77,856.21h1.37c-.23,4.22-2.29,6.32-6.21,6.32a5.64,5.64,0,0,1-4-1.33,6.63,6.63,0,0,1-1.92-4,38.92,38.92,0,0,1-6.74,4,13.88,13.88,0,0,1-5.46,1.33,8.26,8.26,0,0,1-5.29-1.77,5.73,5.73,0,0,1-2.21-4.7q0-3.81,3.72-6.65a45.64,45.64,0,0,1,10.26-5.55l5.72-2.33v-1.48a17.77,17.77,0,0,0-.4-4.55,4.62,4.62,0,0,0-2.11-2.51,8.07,8.07,0,0,0-4.47-1.11q-5.55,0-6.18,3.69c-.39,2.52-1.43,3.78-3.1,3.78-1.5,0-2.26-.72-2.26-2.15s1-2.91,3-4.53,5.1-2.42,9.32-2.42a14.87,14.87,0,0,1,7.28,1.48,7.73,7.73,0,0,1,3.42,3.36,15,15,0,0,1,.84,5.77V853.1a21,21,0,0,0,.43,5.51,1.83,1.83,0,0,0,1.93,1.22C611.37,859.83,612.38,858.63,612.77,856.21ZM602,843.27l-4,1.63q-9.54,3.87-9.55,9.76a5.58,5.58,0,0,0,1.22,3.75,4,4,0,0,0,3.19,1.42,9.15,9.15,0,0,0,4-1.15,28.74,28.74,0,0,0,5.14-3.43Z"/><path class="cls-1" d="M624.28,830.25h1a16.93,16.93,0,0,1,.63,5,16.41,16.41,0,0,1,5.09-3.75,13.64,13.64,0,0,1,5.75-1.24,13.82,13.82,0,0,1,10.47,4.42c2.77,3,4.17,6.83,4.17,11.67a17.27,17.27,0,0,1-4.2,11.86,13.93,13.93,0,0,1-11,4.77,13.32,13.32,0,0,1-5.39-1.12,16.63,16.63,0,0,1-4.86-3.35V870a57,57,0,0,0,.2,6.4,2.44,2.44,0,0,0,1.17,1.72,7.76,7.76,0,0,0,3.59.57v1.7H615v-1.7h1.1c1.75,0,2.89-.25,3.43-.76a2.9,2.9,0,0,0,.91-1.81q.13-1.05.13-6.12V842.49q0-4.85-.13-6.1a2.52,2.52,0,0,0-1.05-1.92,5.83,5.83,0,0,0-3.29-.67H615v-1.7A62.21,62.21,0,0,0,624.28,830.25Zm1.62,25.81a15.15,15.15,0,0,0,4.23,3.68,9.71,9.71,0,0,0,4.72,1.24,9.4,9.4,0,0,0,7.29-3.59q3.09-3.58,3.1-11.43,0-6.8-3-10.16a9.28,9.28,0,0,0-7.14-3.37,9.73,9.73,0,0,0-4.84,1.3,14.88,14.88,0,0,0-4.37,3.92Z"/><path class="cls-1" d="M684.62,841.71H663.51c-.11,1.46-.15,2.55-.15,3.26q0,8,2.49,12a8.24,8.24,0,0,0,7.46,4,9.76,9.76,0,0,0,9.54-6h1.77a10.35,10.35,0,0,1-4.7,5.9A14.71,14.71,0,0,1,665,861a15.44,15.44,0,0,1-5.61-5.49,16.06,16.06,0,0,1-2.18-8.61A17.33,17.33,0,0,1,661.44,835,13.49,13.49,0,0,1,672,830.25c4,0,7,1.21,9.21,3.63A12.38,12.38,0,0,1,684.62,841.71Zm-6.47-1.48a12.65,12.65,0,0,0,.12-1.51,6.37,6.37,0,0,0-6.59-6.84c-4.48,0-7.17,2.79-8,8.35Zm-11-15.53H666l5.54-8.61a19.66,19.66,0,0,1,2.68-3.57,3.14,3.14,0,0,1,2.2-.91,2.15,2.15,0,0,1,1.67.65,2,2,0,0,1,.59,1.38,3,3,0,0,1-.79,1.93,60.57,60.57,0,0,1-5.06,4.47Z"/><path class="cls-1" d="M720.41,831.47v19.86c0,3.3.06,5.37.15,6.21a2.51,2.51,0,0,0,1.09,1.89,6.62,6.62,0,0,0,3.39.63v1.7c-3.75,0-6.48.44-8.22,1.18h-.43c-.79-1.35-1.21-3.7-1.26-7A16.45,16.45,0,0,1,710,861.2a12,12,0,0,1-6.42,1.77,10.33,10.33,0,0,1-5.36-1.38A7.38,7.38,0,0,1,695,858.2a15.61,15.61,0,0,1-.88-6V841.86a62.68,62.68,0,0,0-.18-6.41,2.26,2.26,0,0,0-1.17-1.72,8,8,0,0,0-3.61-.56v-1.7h10.29v21a19.44,19.44,0,0,0,.37,4.51,4.33,4.33,0,0,0,1.89,2.45,5.92,5.92,0,0,0,3.51,1.06,9.11,9.11,0,0,0,5.43-1.87,10.25,10.25,0,0,0,3.54-4,14.91,14.91,0,0,0,.94-6v-6.85q0-5-.11-6a3,3,0,0,0-.95-1.87c-.55-.53-1.7-.8-3.45-.8h-.78v-1.7Z"/><path class="cls-1" d="M747.75,833.17h-9.14v18.31a27.54,27.54,0,0,0,.37,5.67,4.08,4.08,0,0,0,1.57,2.35,4.29,4.29,0,0,0,2.57.89c1.77,0,3.32-1,4.63-3l1.18.71a8,8,0,0,1-3.39,3.68A9.3,9.3,0,0,1,741,863a7.41,7.41,0,0,1-4.68-1.57,6.54,6.54,0,0,1-2.51-3.67,37.19,37.19,0,0,1-.5-7.4V833.17h-4.4v-1.7a7.71,7.71,0,0,0,5.44-2.55,12.2,12.2,0,0,0,3.06-6.95h1.19v9.5h9.14Z"/><path class="cls-1" d="M761.24,830.25v21.12q0,4.85.15,6.1a2.61,2.61,0,0,0,1.08,1.92,5.92,5.92,0,0,0,3.29.67h.77v1.7H750.22v-1.7h1.26c1.75,0,2.89-.26,3.42-.76a2.91,2.91,0,0,0,.92-1.81q.13-1.07.13-6.12v-9.18q0-5.31-.49-6.5a2.4,2.4,0,0,0-1.34-1.48,9.55,9.55,0,0,0-2.9-.3h-1v-1.7a45.17,45.17,0,0,0,10.21-2Zm-7.14-15.46a3.81,3.81,0,0,1,1.13-2.73,3.66,3.66,0,0,1,2.72-1.15,3.58,3.58,0,0,1,2.7,1.15,3.79,3.79,0,0,1,1.11,2.73,3.86,3.86,0,0,1-1.11,2.78,3.61,3.61,0,0,1-2.7,1.14,3.69,3.69,0,0,1-2.72-1.14A3.88,3.88,0,0,1,754.1,814.79Z"/><path class="cls-1" d="M796.92,854.36h1.64Q796,863,786,863a14.83,14.83,0,0,1-10.89-4.39q-4.41-4.41-4.42-11.65a16.09,16.09,0,0,1,4.77-12.06,15.67,15.67,0,0,1,11.28-4.62,15.4,15.4,0,0,1,7.21,1.72q3.29,1.72,3.29,4.2a2.81,2.81,0,0,1-.61,1.73,2,2,0,0,1-1.76.82c-1.62,0-2.62-1-3-2.85a5.52,5.52,0,0,0-1.37-3c-.64-.57-1.89-.85-3.74-.85q-4.95,0-7.44,3.43t-2.5,10.36q0,7.14,2.68,11.17t8.12,4Q794.93,861,796.92,854.36Z"/><path class="cls-1" d="M803.13,846.56a15.86,15.86,0,0,1,4.66-11.63,16.41,16.41,0,0,1,23,0,15.86,15.86,0,0,1,4.66,11.61q0,7.65-4.73,12A16.22,16.22,0,0,1,819.25,863a16,16,0,0,1-11.4-4.45Q803.13,854.07,803.13,846.56Zm6.15.18q0,8.07,2.62,11.3a10,10,0,0,0,14.77,0q2.58-3.22,2.57-11.3t-2.55-11.38a9.82,9.82,0,0,0-14.85,0Q809.28,838.72,809.28,846.74Z"/><path class="cls-2" d="M408.45,199.61A48.13,48.13,0,0,1,441,283.2a83.1,83.1,0,0,1,43.81,45,92.79,92.79,0,0,0-36.32,61.26c-6.89-5.36-13.85-10.64-20.72-16-6-4.7-12.58-9.82-17.85-15.31-8.43-8.81-23.13-20.33-35.92-13.35-12.16,6.66-10.55,23.35-7.84,34.67,3.54,15.05,15.62,29.58,25.9,40.74,2,2.2,7.44,7.6,13.24,13.59-2.52-1.07-5-2.14-7.26-3.22-20.66-9.71-41.71-24.44-51.67-45.66-8-17.13-12.79-36.16-11.35-55.17a89.06,89.06,0,0,1,1.52-10.8,83.06,83.06,0,0,1,39.4-35.71,48.12,48.12,0,0,1,32.52-83.59Z"/><path class="cls-2" d="M671.57,199.61a48.11,48.11,0,0,1,32.51,83.59,83.12,83.12,0,0,1,39.41,35.71,86.81,86.81,0,0,1,1.5,10.8c1.45,19-3.3,38-11.32,55.17-10,21.22-31,36-51.71,45.66-2.28,1.08-4.73,2.15-7.24,3.22,5.8-6,11.21-11.39,13.23-13.59,10.28-11.16,22.36-25.69,25.93-40.74,2.68-11.32,4.28-28-7.87-34.67-12.8-7-27.48,4.54-35.93,13.35-5.24,5.49-11.83,10.61-17.83,15.31-6.89,5.37-13.82,10.65-20.73,16a92.71,92.71,0,0,0-36.32-61.27,83.13,83.13,0,0,1,43.83-45,48.11,48.11,0,0,1,32.54-83.59Z"/><path class="cls-2" d="M540,243.05a48.13,48.13,0,0,1,32.51,83.61,82.61,82.61,0,0,1,49.57,70.2c-20,16-39.28,33.25-55.3,53.3C552,468.7,543.72,500.83,540,525.07c-3.72-24.24-12-56.37-26.79-74.91-16-20.05-35.31-37.29-55.3-53.3a82.6,82.6,0,0,1,49.56-70.2A48.14,48.14,0,0,1,540,243.05Z"/><path class="cls-2" d="M330.12,305.5s11.6-25.71-3.52-31.75-42.35,38.81-30.76,107.88S425.41,580.75,487.91,619.07s51.67-119.73,17.38-162.58-84.48-72.35-102.7-91.37-33.4-16.77-26.6,12,55.34,62.12,57.79,76.41c0,0-73.41-14.91-96.6-64.32s-7.06-83.69-7.06-83.69Z"/><path class="cls-2" d="M749.88,305.5s-11.61-25.71,3.53-31.75,42.33,38.81,30.75,107.88S654.61,580.75,592.1,619.07s-51.68-119.73-17.41-162.58,84.52-72.35,102.73-91.37,33.41-16.77,26.6,12-55.34,62.12-57.81,76.41c0,0,73.41-14.91,96.61-64.32s7.06-83.69,7.06-83.69Z"/></svg>