<svg id="Capa_1" data-name="Capa 1" xmlns="http://www.w3.org/2000/svg" viewBox="0 0 1080 1080"><defs><style>.cls-1{fill:#fff;}</style></defs><path class="cls-1" d="M304.49,490.36c.66-8.75.76-17.17,2.15-25.37.67-3.92-.38-5.41-3.43-6.6-1.48-.58-3.25-1.75-4.49-1.37-2.76.84-5.81,2-7.73,4-2.16,2.24.88,3.74,2.14,5.51a15.75,15.75,0,0,1,2.58,6,40.06,40.06,0,0,1,.22,7.6q-.31,44.24-.64,88.46c0,1.71-.11,3.65.63,5.07a4.6,4.6,0,0,0,3.65,2c3.67-.38,4.43-3.14,4.42-6.42q-.06-28.5,0-57c0-2.94,0-5.88.12-8.82.07-2,.85-3.55,3.22-3.73,10.87-.81,21.73-1.67,32.83-2.53.27,3.25.55,5.62.65,8,.35,7.74.53,15.48,1,23.21.08,1.31,1.2,3.39,2.15,3.59a4.46,4.46,0,0,0,3.7-2.06,18.24,18.24,0,0,0,1.86-7.18c.22-8.25.08-16.51.08-25.3,4.58,1,6.69-1,6.53-4.74-.2-4.35-4.09-1.3-6.38-2.86.16-8.56.06-17.42,3-26,.43-1.26.05-2.8,0-4.21-3.57.66-7.26,1-10.66,2.18-1.06.37-1.88,2.94-1.92,4.53-.19,7.95-.08,15.91-.08,24.07Zm218.79-47.93c-8.63.26-17,.66-25.38.74-13.34.13-26.68.08-40,.06-5.31,0-10.62-.28-15.92-.17-2.84.06-3.46,1.72-2.57,4.42,1,3.11,2.78,4.5,6.15,4.44,8.66-.15,17.32-.05,26.36-.05.28,4.65.55,9,.8,13.37A340.61,340.61,0,0,1,471.19,520c-1.36,13,2.81,21,12.75,25.65,7.37,3.41,14.83,3.62,21.63-1.16,1.6-1.12,1.8-4.22,2.65-6.42-1.67-.15-3.33-.34-5-.45-4.15-.28-8.69.46-12.38-1-7.63-3-10-10-10.08-17.62-.09-9.61.15-19.24.66-28.84.63-12,1.7-23.94,2.5-35.91.15-2.24.76-3.33,3.3-3.36,7.35-.1,14.68-.54,22-.74C515.28,450,520.54,448.58,523.28,442.43ZM608.22,492H582.28c.34-2.81.59-6.24,1.21-9.61A73.83,73.83,0,0,1,586,472.34c2.81-8.39,7.55-11.68,16.4-11.75,1.74,0,3.57.28,5.19-.16,1.2-.33,3-1.65,3-2.5a5.38,5.38,0,0,0-2.35-3.53c-1-.7-2.54-.68-3.86-.79-12.81-1-23.57,6.2-28,18.69-4.13,11.68-4.54,23.77-4.07,36,.65,16.65,8.67,26,25,28.5,4.38.66,9,0,13.49-.52.94-.1,1.71-1.88,2.56-2.89-1-.66-1.9-1.69-3-1.9-2.47-.49-5-.46-7.53-.87-5.5-.92-10.36-2.85-14-7.58-5.33-7-6.18-15-6.61-23.89,6.21-.25,12.31-.43,18.4-.76C605,498.12,607.81,495.64,608.22,492ZM219.6,501.18c0,11.92,4.21,21.68,14.05,28.66,11.75,8.33,34.9,5.29,43.92-8,.72-1.07.52-2.77.75-4.18-1.44.09-3.14-.28-4.28.35-3.14,1.74-6,4.05-9.07,5.86-9.23,5.37-18.79,5-25.54-1.63-9.15-9-13.18-19.88-9.67-32.77,2.42-8.92,5.76-17.54,14.23-22.29a37.68,37.68,0,0,1,15-4.52c2.56-.21,5.4,3.17,8.15,4.88.52.33,1.47.8,1.7.6,2.24-1.93,4.75-3.75,6.28-6.17.36-.58-2.35-4.32-4.13-4.79A36.21,36.21,0,0,0,258.52,456c-13.36,1.33-24.51,6.86-32,18.52C221.24,482.7,220.24,491.93,219.6,501.18Zm721.65,36.61c5.31.1,10.83-4.68,13.3-10.5,3.65-8.58,2.89-16.85-.59-25.18S946.7,485.5,943.69,477c-3.31-9.34,1.83-16.84,11.66-18a39.21,39.21,0,0,0,6.72-.86,4.57,4.57,0,0,0,2.69-2.81,3.54,3.54,0,0,0-1.64-3c-4.9-1.93-9.9-3.21-14.92-.11-6.14,3.78-10.05,9.37-13.35,15.58a17.29,17.29,0,0,0-.4,16.08c2.57,5.7,5.35,11.32,7.81,17.08a176.91,176.91,0,0,1,6.68,17c1.84,5.92-3,11.34-9.34,10.19-2.09-.38-4.13-1-6.18-1.58-3.8-1.08-5.13.17-4.3,4.11S935.27,537.68,941.25,537.79Zm-409.16-49.3h.78c0,10.68,0,21.36,0,32a67.82,67.82,0,0,0,.54,9.57c.37,2.56-.3,6.66,3.58,6.52,4.1-.15,3.72-4.39,3.83-7.22.43-10.49.41-21,.79-31.49.43-12.25,1.13-24.48,1.62-36.73,0-1.39-.06-3.35-.92-4.09-1.69-1.44-3.93-2.34-6.16-.51-1.85,1.52-3.75,3-5.62,4.47-2.2,1.76-2,3.58-.71,5.95a17.94,17.94,0,0,1,2.15,7.06C532.32,478.85,532.09,483.68,532.09,488.49ZM573,402.59c-3.19-1.73-6-2.78-8.27-4.56-9.95-7.81-19.76-15.8-29.56-23.8-2-1.63-3.71-3.78-6.33-.45a45.35,45.35,0,0,0,3.57,4.29c4.48,4.21,5.7,9.49,5,15.3-.35,3-1.33,5.95-1.84,8.95a45.74,45.74,0,0,0-.46,6.41,5.2,5.2,0,0,0,2.06.29,26.79,26.79,0,0,0,2.15-6.09c.84-5.26,1.38-10.57,2-15.48,6.2,3.87,12.23,7.53,18.14,11.37,4.92,3.21,9.7,6.65,14.55,10,2.76.68,3.87-1.34,3.65-4.46-.25-3.45-.57-6.9-.62-10.36-.1-7.14,0-14.29,0-21.47-5.25-.59-5.39-.44-4.09,4.86a3.56,3.56,0,0,1,.07.8Zm-153.72-28.9,2.83,3.18q13.39,15.09,26.79,30.18c1.64,1.87,3.05,2,4.49-.05,6.24-8.81,12.49-17.61,18.65-26.47a26.91,26.91,0,0,0,2-4.75l-5.79-2.26c-2,12-8.23,20.85-16.46,28.91-5.08-5.66-10.08-11-14.83-16.58-4.13-4.85-8-9.94-12.32-15.4Zm-287.65,247c-4.6.09-5.55,1.9-5.36,6.18.44,9.66.3,19.35.23,29,0,2.65.81,4,3.57,4,4.89-.06,9.8-.39,14.66-.05,4,.28,4.35-1.61,4-4.52l-17.08,1.29ZM499.4,410.17l1.9-.13c.31-2.81.79-5.62.91-8.43.38-9.16.69-18.32.82-27.48,0-.92-1.35-2.64-2.12-2.66-2.65-.09-4.43,2.87-3.79,5.52a19.09,19.09,0,0,1,.55,3.91c.26,8.37.42,16.75.73,25.11A20.81,20.81,0,0,0,499.4,410.17Zm-323.35,251,1.21.53a8,8,0,0,0,1.37-2.29,39.45,39.45,0,0,0,.69-5.94c.34-9.32.61-18.64.92-28,.08-2.17-.92-3.15-2.93-2.23-2.33,1.07-4.67,2.29-2.92,5.73.56,1.09.34,2.61.38,3.94.25,8.27.45,16.53.71,24.79A25.3,25.3,0,0,0,176.05,661.19ZM545.79,369.88c3.82-3.42,7-2.18,10.27-.73,4,1.77,7.43-.54,7.84-5.78-3.52,4-7,2.45-10.74,1.1S546.93,364.85,545.79,369.88Z"/><path class="cls-1" d="M661,490.16c9,7,17.48,13.68,25.94,20.37,19.28,15.23,38.5,30.54,57.83,45.71,5.44,4.27,10.94,8.58,18.39,8.93,2.79.13,2.92,2,1.51,3.88a25.39,25.39,0,0,1-3.37,3.43c-3.77,3.47-5.21,3.61-9.27.34-20.8-16.77-41.41-33.77-62.37-50.34-10.34-8.17-21.24-15.64-32-23.31-1.88-1.34-4.21-2.05-7.3-3.52,0,7.79-.15,14.79,0,21.77.14,4.78,1,9.55,1,14.32,0,1.17-2.18,3.34-3.28,3.29a22.75,22.75,0,0,1-7.58-2.15,3.4,3.4,0,0,1-1.27-2.82c.82-7.49,2.37-14.94,2.65-22.44.47-12.56.22-25.14.17-37.71,0-3.57-.14-7.05-3.25-9.87-1.94-1.76-.72-4,1.52-4.68,9.23-2.62,18.49-5.66,28.17-1.86,6.51,2.56,12,6.37,13,13.79,1.06,8.28-3,15-10.34,18.62C668.07,487.42,664.8,488.58,661,490.16Zm-10.7-2.86c12.24-1.8,18.76-7.62,20.42-17.07,1.12-6.35-1.56-10.31-7.83-11.57-3.33-.68-9.7,1.21-10,3.35C651.85,470.26,651.15,478.55,650.27,487.3Z"/><path class="cls-1" d="M755.75,490.2c8.09,6.4,15.79,12.51,23.51,18.6q23.29,18.34,46.62,36.65c5.87,4.61,11.86,9.07,17.66,13.77a26.67,26.67,0,0,0,13.76,5.9c3.31.42,3.79,2,1.65,4.48-.35.41-.75.76-1.13,1.14-5.63,5.66-6.58,5.91-12.64,1-20.38-16.43-40.51-33.18-61-49.45-10.12-8-20.82-15.32-31.35-22.83-2-1.43-4.45-2.27-7.47-3.77,0,8.86-.05,17.05,0,25.24,0,3.73.34,7.46.5,11.19,0,.53.12,1.26-.17,1.57-3.06,3.24-6.18.63-9.17-.17-1.94-.53-3-1.55-2.39-4.43a113.46,113.46,0,0,0,2-17.18c.45-6.9.68-13.83.65-20.74,0-8.54-.28-17.08-.73-25.61a10.13,10.13,0,0,0-2.36-5.08c-1.75-2.29-1.51-4.3,1-5.05,9.33-2.8,18.75-5.76,28.55-1.95,6.49,2.52,12,6.31,13,13.77,1.08,8.21-2.79,14.72-10.42,18.54C762.68,487.39,759.37,488.64,755.75,490.2ZM745,487.05c10.45-.48,18.51-7.36,20.32-16.4,1.34-6.68-1.51-10.91-8.1-12.06-3.3-.57-9.55,1.53-9.79,3.61C746.5,470.34,745.81,478.51,745,487.05Z"/><path class="cls-1" d="M200.4,489c0,11.41-2.22,22.32-8.53,32-12.66,19.37-39,27.54-59.35,12.52-9.45-7-14.48-17-16.37-28.44a63.89,63.89,0,0,1,2.2-30.84c7.89-23.79,26.15-36.39,51.13-33.29,13.63,1.69,22.13,11,26.49,23.42,2.75,7.81,3.66,16.26,5.4,24.42Zm-9.55,4.81c0-14.82-1.48-22.16-5.82-30.91-9.51-19.2-35.55-21-48.51-4.8-13.92,17.43-14.41,43.06-1.81,61.72,13.37,19.82,41.35,16.73,50.95-2.3A46.79,46.79,0,0,0,190.85,493.85Z"/><path class="cls-1" d="M913,536.55a44.45,44.45,0,0,1-4.4-3.51c-6-6.43-11.94-13-18-19.33-.68-.71-2.17-.88-3.28-.88-11.5,0-23,.07-34.51.08-4.35,0-7.8,1.62-10,5.43-2.52,4.37-4.76,8.91-7.43,13.19a5.26,5.26,0,0,1-3.85,2.25,16.56,16.56,0,0,1-6.08-2c-.2-.1.29-2.45.95-3.42,6.52-9.6,13.39-19,19.63-28.74,3.49-5.47,6-11.56,8.91-17.4a5.94,5.94,0,0,0-1.1-7.32c-9.37-10.21-18.58-20.58-28-30.8-7.31-8-14.74-15.83-22.21-23.65-1.61-1.68-1.12-2.68.38-3.88,5.31-4.26,10.63-2.89,14.42,2.72A158.46,158.46,0,0,0,831.9,436.1c16.72,18.69,33.47,37.37,50.52,55.75,9.9,10.66,20.35,20.81,30.69,31.06,1.64,1.62,4.19,2.3,6,3.84.89.77,1.72,3.2,1.29,3.65A78.84,78.84,0,0,1,913,536.55ZM861.62,485.3l-10.06,17.82c-1.29,2.28-.26,3.32,2,3.34,9.66.06,19.32,0,29.92,0Z"/><path class="cls-1" d="M304.49,490.36h35.7c0-8.16-.11-16.12.08-24.07,0-1.59.86-4.16,1.92-4.53,3.4-1.17,7.09-1.52,10.66-2.18,0,1.41.39,2.95,0,4.21-3,8.59-2.88,17.45-3,26,2.29,1.56,6.18-1.49,6.38,2.86.16,3.73-1.95,5.72-6.53,4.74,0,8.79.14,17.05-.08,25.3a18.24,18.24,0,0,1-1.86,7.18,4.46,4.46,0,0,1-3.7,2.06c-1-.2-2.07-2.28-2.15-3.59-.5-7.73-.68-15.47-1-23.21-.1-2.38-.38-4.75-.65-8-11.1.86-22,1.72-32.83,2.53-2.37.18-3.15,1.68-3.22,3.73-.1,2.94-.12,5.88-.12,8.82q0,28.5,0,57c0,3.28-.75,6-4.42,6.42a4.6,4.6,0,0,1-3.65-2c-.74-1.42-.64-3.36-.63-5.07q.29-44.24.64-88.46a40.06,40.06,0,0,0-.22-7.6,15.75,15.75,0,0,0-2.58-6c-1.26-1.77-4.3-3.27-2.14-5.51,1.92-2,5-3.12,7.73-4,1.24-.38,3,.79,4.49,1.37,3.05,1.19,4.1,2.68,3.43,6.6C305.25,473.19,305.15,481.61,304.49,490.36Z"/><path class="cls-1" d="M523.28,442.43c-2.74,6.15-8,7.55-14,7.72-7.34.2-14.67.64-22,.74-2.54,0-3.15,1.12-3.3,3.36-.8,12-1.87,23.93-2.5,35.91-.51,9.6-.75,19.23-.66,28.84.08,7.58,2.45,14.62,10.08,17.62,3.69,1.45,8.23.71,12.38,1,1.67.11,3.33.3,5,.45-.85,2.2-1.05,5.3-2.65,6.42-6.8,4.78-14.26,4.57-21.63,1.16C474,541,469.83,533,471.19,520a340.61,340.61,0,0,0,1.51-54.75c-.25-4.36-.52-8.72-.8-13.37-9,0-17.7-.1-26.36.05-3.37.06-5.12-1.33-6.15-4.44-.89-2.7-.27-4.36,2.57-4.42,5.3-.11,10.61.16,15.92.17,13.34,0,26.68.07,40-.06C506.27,443.09,514.65,442.69,523.28,442.43Z"/><path class="cls-1" d="M375.59,498.35c.27-12.53,3.33-24.1,13.53-32.3,14-11.22,40.11-11.21,45.68,15.68,2.13,10.3,2.38,20.53-2.24,30.45-4.81,10.32-12.65,16.36-23.84,18.45-18.35,3.42-31.84-12.45-33.12-28.68C375.5,500.76,375.59,499.55,375.59,498.35ZM407.17,467c-6.71,0-12.35,2.44-16.05,8.08-7.49,11.44-7.84,23.52-1.89,35.64,4.1,8.34,11.75,12.71,19.61,11.8,8.58-1,14.37-5.87,16.76-13.95a43.56,43.56,0,0,0-1.4-30C421.09,471.27,415.65,466.75,407.17,467Z"/><path class="cls-1" d="M608.22,492c-.41,3.63-3.26,6.11-7.63,6.34-6.09.33-12.19.51-18.4.76.43,8.85,1.28,16.9,6.61,23.89,3.61,4.73,8.47,6.66,14,7.58,2.49.41,5.06.38,7.53.87,1.08.21,2,1.24,3,1.9-.85,1-1.62,2.79-2.56,2.89-4.48.47-9.11,1.18-13.49.52-16.31-2.46-24.33-11.85-25-28.5-.47-12.19-.06-24.28,4.07-36,4.42-12.49,15.18-19.71,28-18.69,1.32.11,2.88.09,3.86.79a5.38,5.38,0,0,1,2.35,3.53c0,.85-1.77,2.17-3,2.5-1.62.44-3.45.14-5.19.16-8.85.07-13.59,3.36-16.4,11.75a73.83,73.83,0,0,0-2.47,10.06c-.62,3.37-.87,6.8-1.21,9.61Z"/><path class="cls-1" d="M219.6,501.18c.64-9.25,1.64-18.48,6.9-26.65,7.51-11.66,18.66-17.19,32-18.52A36.21,36.21,0,0,1,271,457.2c1.78.47,4.49,4.21,4.13,4.79-1.53,2.42-4,4.24-6.28,6.17-.23.2-1.18-.27-1.7-.6-2.75-1.71-5.59-5.09-8.15-4.88a37.68,37.68,0,0,0-15,4.52c-8.47,4.75-11.81,13.37-14.23,22.29-3.51,12.89.52,23.75,9.67,32.77,6.75,6.65,16.31,7,25.54,1.63,3.11-1.81,5.93-4.12,9.07-5.86,1.14-.63,2.84-.26,4.28-.35-.23,1.41,0,3.11-.75,4.18-9,13.27-32.17,16.31-43.92,8C223.81,522.86,219.61,513.1,219.6,501.18Z"/><path class="cls-1" d="M941.25,537.79c-6-.11-11.31-3.23-12.13-7.11s.5-5.19,4.3-4.11c2.05.58,4.09,1.2,6.18,1.58,6.34,1.15,11.18-4.27,9.34-10.19a176.91,176.91,0,0,0-6.68-17c-2.46-5.76-5.24-11.38-7.81-17.08a17.29,17.29,0,0,1,.4-16.08c3.3-6.21,7.21-11.8,13.35-15.58,5-3.1,10-1.82,14.92.11a3.54,3.54,0,0,1,1.64,3,4.57,4.57,0,0,1-2.69,2.81,39.21,39.21,0,0,1-6.72.86c-9.83,1.13-15,8.63-11.66,18,3,8.52,6.78,16.78,10.27,25.13s4.24,16.6.59,25.18C952.08,533.11,946.56,537.89,941.25,537.79Z"/><path class="cls-1" d="M532.09,488.49c0-4.81.23-9.64-.1-14.43a17.94,17.94,0,0,0-2.15-7.06c-1.27-2.37-1.49-4.19.71-5.95,1.87-1.49,3.77-2.95,5.62-4.47,2.23-1.83,4.47-.93,6.16.51.86.74,1,2.7.92,4.09-.49,12.25-1.19,24.48-1.62,36.73-.38,10.49-.36,21-.79,31.49-.11,2.83.27,7.07-3.83,7.22-3.88.14-3.21-4-3.58-6.52a67.82,67.82,0,0,1-.54-9.57c-.06-10.68,0-21.36,0-32Z"/><path class="cls-1" d="M264.82,643.29c-4.51,3.12-8.36,6.27-12.64,8.63-8.93,4.93-15.91,3.79-23.15-3.34-3-3-5.88-6.14-9.45-9.89-1.81,6.32-3.39,11.9-5,17.48-.34,1.15-.48,2.62-1.27,3.3-.94.8-2.47.91-3.75,1.32-.33-1.29-1.26-2.81-.87-3.83,1.61-4.19,3.76-8.17,5.45-12.33,2.56-6.29.76-12-2.88-17.28-.73-1.07-1.49-2.11-2.31-3.28,3.34-2.31,5.09-.68,6.92,1.63,4.86,6.18,9.6,12.49,14.88,18.3,9.18,10.09,18.21,10.26,27.5.08,3.39-3.71,5-9,7.56-13.5a26,26,0,0,1,2.67-3.31c.42,1.41,1.32,2.88,1.19,4.24-.79,7.94-2.33,15.86,1.62,23.53.47.91-.21,3.36-1,3.81-2,1.09-3.09-.32-3.39-2.43C266.23,652.1,265.53,647.79,264.82,643.29Z"/><path class="cls-1" d="M573,402.59V378.18a3.56,3.56,0,0,0-.07-.8c-1.3-5.3-1.16-5.45,4.09-4.86,0,7.18-.07,14.33,0,21.47,0,3.46.37,6.91.62,10.36.22,3.12-.89,5.14-3.65,4.46-4.85-3.34-9.63-6.78-14.55-10-5.91-3.84-11.94-7.5-18.14-11.37-.61,4.91-1.15,10.22-2,15.48a26.79,26.79,0,0,1-2.15,6.09,5.2,5.2,0,0,1-2.06-.29,45.74,45.74,0,0,1,.46-6.41c.51-3,1.49-5.94,1.84-8.95.68-5.81-.54-11.09-5-15.3a45.35,45.35,0,0,1-3.57-4.29c2.62-3.33,4.33-1.18,6.33.45,9.8,8,19.61,16,29.56,23.8C567,399.81,569.85,400.86,573,402.59Z"/><path class="cls-1" d="M367.34,641.57l17.3,15.7c-1.92,2.81-3.5,3.27-5.77.72-4.38-4.94-9-9.71-13.47-14.54l-1.27.38c-.29,5.31-.59,10.62-.9,16.39l-3.89-.84c.16-10.33.32-19.91.47-29.5-4.44-5.48,1.19-5.85,3.92-7.27,6.24-3.25,11.29-2.11,13.34,2.66,2.55,5.91-.09,12.09-6.26,14.67C370.09,640.24,369.39,640.6,367.34,641.57Zm-2.83-2.21c5.67-1.07,9.43-5.39,8.48-10.44a6.48,6.48,0,0,0-3.68-4.17c-2.51-.83-4.5,1-4.72,3.56C364.27,632,364.51,635.67,364.51,639.36Z"/><path class="cls-1" d="M293.35,659.52c7.79-8.27,11.44-18.4,15.95-28,.8-1.72.64-3.86,1.16-5.74a21.19,21.19,0,0,1,1.68-3.5c1.18.63,2.9,1,3.44,1.94,2.23,4.08,3.93,8.45,6.16,12.53,4,7.34,8.26,14.55,12.39,21.77-4,1.56-6.75,1-7.62-2.56-1.95-8-7.63-8.8-14.45-9-4.75-.16-7.63,1.14-8.81,5.8a19.79,19.79,0,0,1-1.07,2.58C299.93,660.54,299.74,660.64,293.35,659.52Zm14.43-16h12.57c-2.2-4.36-4.17-8.27-6.44-12.79Z"/><path class="cls-1" d="M761.69,639.46c0-3.39.12-6.44,0-9.48-.24-4.86.67-5.7,5.84-5.14-.64,4.54-1.29,9.09-1.91,13.52,4.32,1.82,4.31,2,1.21,4.68a4,4,0,0,0-.93,2.7c-.12,3.07.1,6.16-.11,9.22a7.68,7.68,0,0,1-2.09,4.35c-2.78-5.14-1.21-10.69-2.38-16.52l-17.16,1c0,4.48,0,8.58,0,12.69,0,2.36-.67,4-4,3.29,0-3.86,0-7.81,0-11.77,0-5.61,0-11.23-.09-16.85a9.77,9.77,0,0,0-.94-2.89c-.4-1.12-.84-2.24-1.26-3.35a18.45,18.45,0,0,1,4.31-1.14c1.08,0,2.18.76,3.2,1.17-.4,4.93-.79,9.62-1.19,14.57Z"/><path class="cls-1" d="M601,408c7.17-8.71,12-18.35,15.83-28.47.67-1.75.36-3.85.76-5.73.21-1,.78-2.39,1.55-2.71a3.48,3.48,0,0,1,3.08.71,14.85,14.85,0,0,1,2.21,3.78c5.62,10.55,11.23,21.12,16.82,31.61-3.73,1.49-5.62.7-7.54-3.07-1.36-2.66-2.72-6.68-4.88-7.3-4.6-1.33-9.73-.92-14.64-1-.61,0-1.44,1.1-1.84,1.86-1.11,2.12-2.1,4.31-3,6.52C607.2,409.28,607,409.38,601,408Zm26.84-15.71-6.56-13-6.11,13Z"/><path class="cls-1" d="M419.32,373.69l5.37-3.24c4.34,5.46,8.19,10.55,12.32,15.4,4.75,5.57,9.75,10.92,14.83,16.58,8.23-8.06,14.44-16.94,16.46-28.91l5.79,2.26a26.91,26.91,0,0,1-2,4.75c-6.16,8.86-12.41,17.66-18.65,26.47-1.44,2-2.85,1.92-4.49.05q-13.35-15.14-26.79-30.18Z"/><path class="cls-1" d="M933.91,623.39c-12.83,2.12-12.22,5.82-13.65,16.7h12.91c-3.44,5.23-9,1.44-13,4.61-.17,3.51.58,7.89,3.75,10.51,3,2.45,7.13,3.4,10.94,5.08-.06.07-.44,1-.93,1-8.63,1-16.3,0-18.34-11.58a34.4,34.4,0,0,1,2.14-20c2.58-5.84,8.82-9.17,14.2-7.6A8.26,8.26,0,0,1,933.91,623.39Z"/><path class="cls-1" d="M702.85,653.47c-2,1.79-3.6,4.35-5.89,5.22-11.05,4.22-22.21.66-22.76-13.78-.51-13.61,8.35-22.49,21.59-22,1.7.06,3.37.88,5.9,1.58l-3.6,4.2c-5.93-4-12.55-2.57-16.2,3.36-3.88,6.3-5.15,12.73-.71,19.46,3.94,6,9.29,7.29,15.32,3.48,1.68-1,3.38-2.08,5.07-3.12Z"/><path class="cls-1" d="M131.67,620.73v35.94l17.08-1.29c.37,2.91.06,4.8-4,4.52-4.86-.34-9.77,0-14.66.05-2.76,0-3.59-1.36-3.57-4,.07-9.68.21-19.37-.23-29C126.12,622.63,127.07,620.82,131.67,620.73Z"/><path class="cls-1" d="M863.16,656.67l17-1.36c.21,3.5-1.07,4.87-4.84,4.58-4.73-.38-9.53,0-14.29.06-2.59,0-3.74-1.16-3.33-3.69a90.88,90.88,0,0,0-.34-30.56c-.42-2.38,2.18-5.65,4.41-5.15.65.14,1.34,1.85,1.35,2.85C863.19,634.32,863.16,645.24,863.16,656.67Z"/><path class="cls-1" d="M499.4,410.17a20.81,20.81,0,0,1-1-4.16c-.31-8.36-.47-16.74-.73-25.11a19.09,19.09,0,0,0-.55-3.91c-.64-2.65,1.14-5.61,3.79-5.52.77,0,2.14,1.74,2.12,2.66-.13,9.16-.44,18.32-.82,27.48-.12,2.81-.6,5.62-.91,8.43Z"/><path class="cls-1" d="M811.94,661.48a38,38,0,0,1-.94-5.63c-.2-7.76-.21-15.51-.34-23.27a12.57,12.57,0,0,0-.51-3.51c-1-3,.32-5.61,3.36-5.92.72-.07,2.28,1.3,2.27,2-.2,11-.57,21.89-1,32.83a15.13,15.13,0,0,1-1.13,3.7Z"/><path class="cls-1" d="M176.05,661.19a25.3,25.3,0,0,1-.57-3.43c-.26-8.26-.46-16.52-.71-24.79,0-1.33.18-2.85-.38-3.94-1.75-3.44.59-4.66,2.92-5.73,2-.92,3,.06,2.93,2.23-.31,9.32-.58,18.64-.92,28a39.45,39.45,0,0,1-.69,5.94,8,8,0,0,1-1.37,2.29Z"/><path class="cls-1" d="M411.29,661.66a28.33,28.33,0,0,1-1.11-5.21c-.2-7.88-.19-15.77-.34-23.65a9.89,9.89,0,0,0-.75-4.23c-1.07-2.05-.57-3.36,1.31-4.21a26.86,26.86,0,0,1,4-1.15,28.36,28.36,0,0,1,.36,3.65c-.21,9.2-.43,18.4-.77,27.6-.09,2.38-.62,4.74-1,7.11Z"/><path class="cls-1" d="M545.79,369.88c1.14-5,3.57-6.78,7.37-5.41s7.22,2.91,10.74-1.1c-.41,5.24-3.8,7.55-7.84,5.78C552.76,367.7,549.61,366.46,545.79,369.88Z"/><path class="cls-1" d="M525.11,716.25a9.55,9.55,0,0,1-4.58-3.92,6.58,6.58,0,0,1-1.08-4c-.21-4.62,1.55-6.45,4.21-9.4l-.72-1c-2.09-2.94-2.13-8.67-.1-11.77.84-1.27.7-1.8-.46-1.81a6.91,6.91,0,0,1-2-1.56,7.41,7.41,0,0,1-2.32-5.48c0-.72-.3-1.08-1.41-1.75a6,6,0,0,1-2.35-7.24c.39-.92.36-1-.58-1.63-1.53-1-2.78-3.76-2.78-6.13,0-4.26,1.69-5.76,4.17-8.21-3.23-3.09-.55-.59-6.6-.54a7,7,0,0,0-3.4.54,15.54,15.54,0,0,1-5,1.54,2.61,2.61,0,0,1-1.14-.31c-.41-.26-.4-.45.08-1.46a9.26,9.26,0,0,0,.56-1.31c0-.24-13,4.7-16.71,4.7h-1.49l.11-3.17c.1-2.9.21-3.39,1.31-5.59a26.94,26.94,0,0,1,2.82-4.36c2.28-2.72,2.15-3.46-.38-2.1-1.4.75-2.37.83-2.6.21s1.06-3.65,2.54-5.88a35.23,35.23,0,0,1,7.51-7.84c2.77-2,2.66-2.69-.43-2.69q-2.7,0-.21-1.72c2.91-2,3.37-2.08,12.06-1.75,1.95.08,2.47-.34,1.26-1-.78-.43-6.07-.37-13.59.13-3.5.24-4.51-.05-4.51-1.31,0-.95,1.48-2,2.3-2.67-1.74-.63-4.64-1.58-5.7-2.69l-.89-.93a9.57,9.57,0,0,1,3.71-2.49c2.55-.85,2.39-1.2-.55-1.25-1.72,0-1.83-.75-.35-2.38,1.85-2.06,4.89-3.44,11.92-5.43,2.08-.58,2.34-1,.89-1.24-1.12-.22-1.2-.64-.37-2s3.4-2.66,6.11-3.13,5.52,0,11.41,1.86c3.54,1.12,3.73,1.15,4.14.58s.28-2.83-.46-4.6a2.34,2.34,0,0,1-.29-1.26c.29-.3,4.51.62,6.48,1.41,5.88,2.35,8,5.48,8,11.66v2.76c4.36-3.92,4.39-3.66,6.82-8.48a81.4,81.4,0,0,0-7.74-15.5,14,14,0,0,1-1.91-3.79,11.29,11.29,0,0,1,3.67-2.72c.58,0,3.12,3.3,4.76,6.2,1.5,2.64,4.07,8.64,4.07,9.49,0,.67.66.4,1.44.7.37.14.25-.3-.46-1.65a6.37,6.37,0,0,1-.33-6.07,19.13,19.13,0,0,1,5.62-7.24c1.39-.93,2.48-1.38,2.48-1,0,0-.29.85-.65,1.79-.65,1.71-.86,3.64-.39,3.64a13.63,13.63,0,0,0,2.18-2,15.48,15.48,0,0,1,7.68-4.35c2.39-.56,6.49-.64,7.43-.13s.52.5-1,2.1a28.36,28.36,0,0,1,8.41.77c3.19.86,6.77,2.45,7,3.12.42,1.07-.4,2.37-3.24,5.15-2.38,2.34-3.32,3-4.75,3.53-2.51.87-5.5,2.41-5.5,2.83,0,.19.2.27.44.18a22.42,22.42,0,0,1,6.64-1.51,25.47,25.47,0,0,1,8.58,2.07c3.69,1.63,8.68,5.47,8.17,6.3a2.32,2.32,0,0,1-1.46.31c-2.49,0-2.57.62-.27,2.1a19.15,19.15,0,0,1,6.13,6.92l1,2.14-1.06.9c-2.53,2.1-6.85,1.76-11.07,1.76.27,1.25.51,1.6-.48,2.06-1.72.78.38,1.25-1.27,3.21-.95,1.13-1,1.37-.34,1.37,1.41,0-.14,2.58-2.65,4.41-2.16,1.58-5,2.57-8.94,3.17-3.2.48-4.72,1-4.23,1.51a13.25,13.25,0,0,0,3.3.63c5.66.64,11,2.57,11.06,4,0,.61-5.07-.57.35,2.32,3,1.63,6.44,4.93,7.25,7.06,1.15,3-.26,2.52-1.83,2.2l.7,1a31.89,31.89,0,0,1,3.38,7.58c.65,2.51.65,2.57-.13,3.35-1.22,1.22-6.65.77-10.33-.85-2.27-1-2.4-1.2-.87.59a7,7,0,0,1,1.16,1.61c0,.46-1.61.68-3.29.46a28.85,28.85,0,0,1-7.28-2.48c-.68-.57-.54-.14.51,1.51,3.47,5.47.78,14.19-4.89,15.83-1.83.53-1.83.53-2.05,2-.5,3.31-3.89,7.81-6.29,8.33-.81.18-.95.39-1.12,1.68-.47,3.37-3.14,6.73-6,7.6-1.19.36-1.2.38-1.39,2.44a10.08,10.08,0,0,1-5,8.11c-1.85,1.08-4.17,1-6.68,1.23l-.37,1.62a11.81,11.81,0,0,1-5.4,7.77,8,8,0,0,1-4.32,1,10.76,10.76,0,0,1-3.84-.37Zm6.43-2.42c2.28-1.05,4.53-3.81,4.32-5.29-.16-1.1-.86-.89-1.84.53-1.71,2.52-2.24,1.59,0-1.63.8-1.17.92-1.54.61-1.92a1.3,1.3,0,0,0-.63-.47c-.42,0-4.22,6.09-4.22,4.68a12.94,12.94,0,0,1,2-3.43c1.1-1.4,1.23-2.55.28-2.55-1.33,0-5.49,8.33-5.76,7.51-.18-.54,1.36-3.75,2.85-5.93a8.8,8.8,0,0,0,1.29-2.38c0-1-.95-.44-2,1.21-1.58,2.37-3.87,4.59-1.36.43a9.87,9.87,0,0,0,1.13-2.33c0-.83-.91-.46-1.6.65a3.77,3.77,0,0,1-1.16,1.29c-.59.23-.59-.05,0-1.09s.6-1.3-.43-1.3c-2,0-3.45,2.79-3.24,6.44.1,1.93.27,2.45,1.1,3.5a7.47,7.47,0,0,0,8.72,2.08Zm-3.34-1.25a.94.94,0,0,1,.7-.67c.51-.1.54,0,.23.56-.44.82-1.08.9-.93.11ZM523,706.49c.14-.7.72-.75.85-.06s-1,.71-.85.06Zm17.12-3.79a9.62,9.62,0,0,1-1.14-2.18c-.17-.73-.1-.7.71.31,2,2.46,2.91,3.35,3.29,3.11s0-.72-1-1.79a17.17,17.17,0,0,1-2.33-3.29c-2.12-4.19,2.88,3,4.26,4,.75.57.78.56,2.09-.62a7.29,7.29,0,0,0,2.61-4.65,7.08,7.08,0,0,0-1.16-5.68l-.77-1,.62,1.91c1.05,3.21.67,7.07-.32,2.56-.48-2.16-1.6-5-2-5-.15,0,.09.78.52,1.73,1.76,3.84,1,4.86.06,2.57-.22-.53-1.68-4.3-2.16-4.3-1,0,1,1.92,1.42,4.24.21,1.06.19,1.08-.31.46-.71-.86-2.27-4.37-2.92-4.37-.39,0-.32.32.33,1.61,1.34,2.64.93,3.75-.67.59-1.17-2.3-1.67-1.35-.81.26,1.15,2.14.74,3.43-.57.89l-.58-1.15a24.23,24.23,0,0,1-2,4.37,4.5,4.5,0,0,0-.67,3.21c.08,1.63.22,2,.84,2.46.89.59.74.46.36-1.39.58.68,2,2.43,2.67,2.43.51,0,.46-.18-.36-1.38Zm4.52-1.54a.33.33,0,0,1,.65,0,.33.33,0,0,1-.65,0Zm-2-3.12c-.47-.47.74-1.28.74-.28,0,.5-.38.65-.74.28Zm2-.76c0-.43,1-.43,1,0s-1,.42-1,0Zm-12.38,2.41c2.37-1,4.09-3.29,3.75-5l-.22-1.06-.61,1.19c-.9,1.76-1.32,1.11-.55-.85.56-1.41.6-1.81.26-2.5s-.41-.79-.79.8c-.53,2.19-1.13,3.4-1.69,3.4-.32,0-.4-.18-.24-.57a15.18,15.18,0,0,0,1.13-4.44,3,3,0,0,0-1.23-2.22c-1.33-1.3-1.5-1.27-2.18.34-.24.58-.59,1.06-.78,1.06-.47,0-.43-.46.14-1.84s.61-1.73,0-1.73c-.24,0-.76.77-1.14,1.7-1.31,3.17-1.28,3.12-1.3,1.69a6.15,6.15,0,0,1,.59-2.51c.59-1.16.43-1.81-.33-1.34s-1.51,2.85-1.74,4.92c-.13,1.11-.36,1.94-.52,1.84-.54-.33-.3-3.81.35-5.24.8-1.76.08-1.94-1-.24a10.85,10.85,0,0,0-1,7c.41,1.91,1.85,4.3,2.67,4.46s3.8-4.94,4.07-4.66c.81.8-2.82,5-2.82,5.46,0,.88,3.33,1.13,5.11.39Zm-5.59-3.79c.33-1.1,1.22-2.39,1.36-2s-.79,2.7-1.21,2.7c-.22,0-.28-.28-.15-.73Zm3.39-4.45c0-.43,1-.43,1,0s-1,.42-1,0Zm23.58-.07c1.22-1.16,2.65-3.87,2.66-5s-.55-.86-.78.37c-.41,2.17-2.62,4.69-4.14,4.72-.38,0-.07-.47,1-1.52,1.52-1.52,2.63-3.87,2.19-4.58s-.8-.37-1.19.93-1.41,2.55-1.76,2.21,1.49-3.61.89-4.22c-.27-.26-.45-.13-.69.5-.55,1.43-1.1,1.07-.86-.55.21-1.38.19-1.44-.82-1.79-2.06-.71-2.23-.49-2.54,3.37-.2,2.48-.23,2.55-.63,1.62-.82-1.9.39-5.84-.55-4.56-1.25,1.72-.81,4.82.82,5.79a8.12,8.12,0,0,1,2,2.35c1,1.7,1.12,1.78,2.17,1.63a4.81,4.81,0,0,0,2.23-1.23Zm-4.29-2.5a.36.36,0,0,1,.62-.38.36.36,0,0,1-.62.38Zm-.82-2.62a.32.32,0,0,1,.64,0,.32.32,0,1,1-.64,0ZM540.37,689c2.44-1,3.62-3,3.63-6.08,0-4.59-3.94-8.67-7.43-7.67-5.22,1.5-5.69,11-.66,13.52a4.59,4.59,0,0,0,4.46.23ZM535,686.48c-1.74-2.09-1.75-6.72,0-8.69l.66-.76-.69,3.08a8.39,8.39,0,0,0,.52,5.24c.73,1.41.4,2.18-.47,1.13Zm5.36-.43c-.33-.32-.27-1.41.06-1.41s.75,1,.43,1.36a.35.35,0,0,1-.49,0Zm2-1.6c0-1.41-.21-2.5-1.18-6-.2-.72-.17-.76.3-.38,1.24,1,2.19,6.66,1.27,7.57-.3.3-.39,0-.39-1.23Zm-4.53.84c0-.42,1-.42,1,0s-1,.43-1,0Zm2.48-2.18c-.18-.29-.78-3.72-1.15-4.69-.54-1.41.23-1.44.83,0,.77,1.77,1,5.89.32,4.72Zm-4.28-.86c-.25-1,.68-4.72,1.32-5.36s.85-.24.32,1.27a17.56,17.56,0,0,0-.7,3.13c-.22,1.84-.62,2.25-.94,1Zm-6.95.33c1.34-.68,1.48-.87,1.67-2.24a11.46,11.46,0,0,1,1.11-3.13c1-1.85.85-2.44-.35-1.31s-1.36.49-.2-1.13c1-1.43,1.09-2.11.21-2.11-.63,0-3,3.24-3.44,3.24-.65,0-.21-.84,1.5-2.84s2-2.53,1-3.12c-.73-.46-2.4,1.16-4.36,4.26-1.51,2.38-2,2.82-2,1.75,0-.62,2.75-4.75,3.68-5.52.66-.55.69-1.29.06-1.54-1.21-.46-4.1,3-5.36,6.44-1.64,4.44-2.18.12,1.28-4.46a15.68,15.68,0,0,0,1.32-1.92c0-.48-1.07-.07-2,.77-3.4,3-4.28,9.72-1.56,11.95a7,7,0,0,0,7.48.91Zm-2.91-.85a.32.32,0,1,1,.64,0,.32.32,0,0,1-.64,0Zm-2.59-1.94a.32.32,0,1,1,.64,0,.32.32,0,0,1-.64,0Zm2.91-1a.33.33,0,0,1,.65,0,.33.33,0,0,1-.65,0Zm32.71,3.89a8.27,8.27,0,0,0,3.37-3.79c.65-1.29.66-1.59,0-1.07-.4.33-.49.31-.49-.11,0-1,1-2,.42-2.52s-.9,2.38-2.21,3.61c-1,.95-1,.54,0-1.67,1.11-2.46,1.28-3.57.69-4.34-.49-.62-.53-.61-1.5.58-2.4,2.9-1.18-.25-.39-1.13.46-.51.46-.58,0-.76-.71-.28-1.21.18-2.68,2.5s-1.85,1.85-.77-.57a4.22,4.22,0,0,0,.51-1.67c-.46-.46-2.09,2.08-2.79,4.36l-.78,2.53a10.47,10.47,0,0,1,.29-4.51c.67-1.61,0-1.46-.81.19-1.27,2.49-.84,5.9,1,7.52.67.61.69.59,3.11-1.75a15.28,15.28,0,0,1,2.44-2.14c0,.75-1.47,2.88-2.61,3.78s-1.22,1.12-.9,1.33c.76.48,2.85.3,4.15-.37Zm-5.5-1.82a7.46,7.46,0,0,1,1.13-1.46c1.3-1.44,1.57-.84.3.66-.78.92-1.43,1.29-1.43.8Zm-6.82-1.94a7.41,7.41,0,0,0,1.54-1.87c.63-1.2.72-4.61.14-5.55-.34-.55-.37-.46-.2.67.19,1.33-.22,3.89-.71,4.38s-.17-5.72-.7-6.83c-.35-.73-.38-.67-.22.58.41,3.23-.79,3.59-.8,1.17,0-2.64-1-4.52-1-1.44,0,2.08-.58,2.45-.71.46-.14-2.17-.85-2.23-1-.08-.11,2-.91,2.67-.91.8,0-1.59-.64-1.35-.65-.43,0,2-1,3.05-1,1.21,0-1.69-1.36-.81-1.61-.34-.67,1.26-.38,1.77,1.46,2.57a7.63,7.63,0,0,1,4.14,4.16,3.81,3.81,0,0,0,.91,1.39,4.85,4.85,0,0,0,1.24-.85Zm-1.28-3.37c0-1.28.65-1.28.65,0s-.65,1.29-.65,0Zm-1.72-1.5c-.46-.46.75-1.28.75-.28,0,.5-.38.65-.75.28Zm-24.69-1.64a18.54,18.54,0,0,1,1.66-2.91c1.34-1.76.3-1.21-1.33.71-.84,1-1.65,1.69-1.81,1.6-.43-.27.26-1.37,1.82-2.88,1.37-1.33,1.37-1.35.48-1.22a3.44,3.44,0,0,0-1.65.91c-1.18,1.26-2.16.84-1.2-.13.31-.3.27-.38-.15-.38-.74,0-1.21,1-1.21,2.55a3.21,3.21,0,0,0,1,2.45,4.49,4.49,0,0,0,1.27,1.15,5.28,5.28,0,0,0,1.11-1.85Zm15.72.41c0-2.24.86-3,.19-3.2-.31-.12-.48.31-.63,1.51-.28,2.36-.25,3.13.12,3.13.18,0,.32-.65.32-1.44Zm32.5-.3c2.43-1,4.44-4.69,4.42-8.1,0-3.76-2.91-7.33-5.94-7.33-2.27,0-4.7,3.57-5.25,7.7-.41,3.1,1.14,6.47,3.5,7.64a3.17,3.17,0,0,0,3.27.09Zm-4.53-3a13.16,13.16,0,0,1-.45-6.85c.52-2.08,1.29-3.64,1.8-3.64,1,0-1.91,3.4-.82,9.21.48,2.51.24,3.08-.53,1.28Zm4.28-.1a.36.36,0,0,1,.61-.38.36.36,0,0,1-.61.38Zm.21-2.32c.32-1,1.48.35.42.35-.3,0-.49-.16-.42-.35Zm2.72-2.49c-.11-1.2-.3-2.69-.4-3.32-.17-1-.15-1.09.32-.64.66.62,1.25,3.67,1,5.08-.32,1.69-.67,1.26-.91-1.12Zm-5.53.16c-.47-1.73.66-5.87,1.79-6.56,1.48-.92-1,2.71-1,4.7a9,9,0,0,1-.53,2.76l-.24-.9Zm2.95-1.45c-.29-1.79-.25-3.65.09-3.65s1,3.13.8,4.07c-.29,1.15-.66,1-.89-.42ZM556.85,669l1.58-1.06c.18-1.86.6-4.18,0-5.43-.46-.9-.51-.91-1-.35-1,1.26.33-1.38-.56-2.11-.37-.31-.51-.13-.78,1-.19.76-.44,2-.56,2.79-.48,3-.88-.18-.14-3,.25-.9.25-1.39,0-1.63-.51-.51-.59-.31-1.18,2.86-.3,1.6-.66,3.27-.8,3.72-.57,1.73-.31-2.1.31-4.7.46-1.93.52-2.64.24-2.82-.7-.43-2.09,5.72-2.14,3.75a8.38,8.38,0,0,1,.46-2.39c.59-1.67.59-1.62,0-1.62s-1.1,1.56-1.33,2.11l-.37-2.27-1.55,5.51a8.36,8.36,0,0,1,.11-3.49c.49-1.38.19-1.49-.51-.19a8.43,8.43,0,0,0-.59,3.86c0,2.48.09,2.92.85,4.08a5.14,5.14,0,0,0,4.69,2.37,4.73,4.73,0,0,0,3.24-1Zm-.31-4.36c-.24-.39.29-1.23.53-.85s-.29,1.23-.53.85Zm-6.35-2.55c0-.88.43.17.17.42s-.18-.08-.17-.42Zm-9.84,6.64a7.23,7.23,0,0,0,3.26-3c.43-.84.44-.92,0-.57s-.48.11-.45-2a7.46,7.46,0,0,0-1-4.44c-.89-1.79-1.48-3.07.05-1.62,1.3,1.21,1.83,3.85,2.36,6.32l0-1.48c.09-3.45-2.14-6.79-4.87-7.3a5.46,5.46,0,0,0-4.56.7c-2.5,1.63-3.44,5.36-2.18,8.7,1.43,3.8,4.51,5.77,7.34,4.7Zm-4.1-2.55c-.44-.82-.42-1,.12-1s.84.66.84,1.32-.61.32-1-.33Zm-2.33-1.51a7.61,7.61,0,0,1-.55-4c.13-2.74.69-3.91,2.31-4.84,1.35-.76,1.33-.2,0,1.16-1.83,1.83-2,4.09-.76,8.15.51,1.62-.2,1.3-1-.44Zm5.88,0c0-.64.65-.64.65,0s-.65.64-.65,0Zm-4.69-1.23c-.4-.94,0-4.33.71-5.48,1.29-2.21,3.79-2.34,1.92-.88-1.24,1-1.59,1.78-2,4.52-.26,1.68-.45,2.24-.62,1.84Zm4.69-1c0-1,.65-1.58.65-.21s-.65,1.23-.65.21Zm.21-2c-.32-.82-.25-3.8.08-3.59s.76,3,.43,3.61-.32.48-.51,0Zm-20,5.33c1.51-.43,2.08-.82,1.81-1.25-.16-.25-.4-.24-.84,0-.83.52-1.2.07-.53-.67s1-2.41-.76-.33c-.55.67-1,.94-1.27.78-.74-.46,2.08-2.25,1.84-3.3-.11-.49-.5-.22-2,1.42a13.76,13.76,0,0,1-2.17,2c-.76,0,0-1.28,2-3.26,1.34-1.32,2.25-2.48,2.19-2.78-.23-1.15-3.51,3.11-3.51,1.41,0-.23.73-1,1.62-1.65,2.82-2.15,2-3.68-2.5.56-1,1-1.64,1-1.28.09a19.61,19.61,0,0,1,4.12-3.49c.72-.49.74-.56.21-.77s-1,.1-2,.81c-1.74,1.25-2.35,1-.86-.33,1.7-1.52,1.13-1.86-.73-.44-4.55,3.47-3,13.33,4.7,11.14Zm10.54-.4a15.36,15.36,0,0,1-.4-1.62c-.18-.93-.59-1.17-.84-.48-.07.22-.25.3-.39.17-.59-.55,2.17-7,1.87-7.38s-2.26,2.3-2.64,3.55c-1,3.52-1.57-1.16,1.25-3.7,1.71-1.55-.33-3-2.74,1.71-.63,1.24-1.12,1.89-1.12,1.52a7.12,7.12,0,0,1,1.45-4c2.92-3.47-3.38.24-3.41,4.36,0,3.39,2.83,6.56,5.94,6.6,1.16,0,1.24,0,1-.72Zm-4.32-2.53c.32-1,1.48.35.42.35-.29,0-.48-.16-.42-.35Zm35-5.34a3,3,0,0,0,1.28-1.31,5.06,5.06,0,0,0-.17-3.87c-1-1.37.07,1.47-1,1.47-.42,0-.47-.23-.3-1.29.47-2.76-.8-4.32-.81-2.35,0,1.48-.38,3.32-.68,3.32s-.35-2.72,0-4.35c.47-2-.84-4.79-.45-5.41.24-.38-.41-.75-1.42,1.85l-1.5,3.54a5.78,5.78,0,0,1,.61-3.95c.87-1.9.85-2.42-.08-1.84s-2,3.8-2.28,6.83l-.25,2.84c-.66-2.06-.95-2.39-.49-4.91.69-3.72,1.82-4,.72-4-.95,0-1.8,2.79-1.81,6s.87,5.24,2.84,6.67c1.5,1.08,2.31,1.23,2,.36s-.28-5.29,0-5.62.59,5.14.91,6,1.48.73,2.77.06Zm-5.81-6.16c.13-1.06,1-1.64.86-.28-.12,1.06-1,1.65-.86.28Zm23.28,6c-.62-1.17-.41-2.59.45-3,.66-.3,1.14-.19,3,.68a23.36,23.36,0,0,0,8.23,2,3.79,3.79,0,0,0,1.27-.11,56,56,0,0,0-1.94-5.53,18.79,18.79,0,0,0-1.59-2.88,13.41,13.41,0,0,1-2-4.18c0-.4,2.38-.13,2.85-.09l-.48-.93c-.79-1.52-3.28-3.72-5.76-5.08-2.9-1.59-3.89-2.58-3.62-3.65.19-.74.06-.82-2.31-1.48a45.29,45.29,0,0,0-5.71-1.1c-2.83-.35-3.28-.49-3.82-1.22a1.45,1.45,0,0,1-.29-1.69c1.16-3,8.38-1.37,13.75-5.07,1.87-1.28,2-1.53,1-1.78-1.21-.3-1-1.19.65-2.57a6,6,0,0,0,1.46-1.49c0-1.11-7.31-3.1-10.34-2.81-3.71.35-7.89,3.37-8.19,5.91-.12,1-.06,1.12.54.95,1.64-.46,5.62-1.45,6.66-1.65,2.57-.49-2.19,2.12-5.74,3.15-3.37,1-2.4,1.32-1.47,1.11,2.32-.53,3-.59,3-.28a4.91,4.91,0,0,1-2.18.91c-3,.79-3.11.91-2.16,2.31a11.27,11.27,0,0,1,1.58,4.39c.18.86.26.89,2.37.93l2.18,0a15,15,0,0,1-3.45.88,1,1,0,0,0-1,.75c-.44,1.67-.5,1.67,5.44.71,3.42-.55,5.32-.6,4.86-.15s-5.4,1-5.63,1.18a9.51,9.51,0,0,0,1.84,2c1.91,1.79,2.68,3.23,2.68,5,0,.55.23.58,2.84.4s2.78-.17,1.54.27c-4.57,1.62-7.94-.71,2.07,7,1.27,1,2.15,1.83,2,1.89-.76.26-4.22-1.37-6.4-3l-2.32-1.74c-.76,1.44-1.9,3.77-3.06,4.56l-1.13.79c-.59.46,3.33,2.71,6.45,3.7,2.31.73,2.35.73,1.95,0Zm8.43-2a3.61,3.61,0,0,1-1.57-1c-.14-.41,3.05.69,3.61,1.26s-.34.37-2-.31Zm-11.49-1.06c-1.38-3.39-.5-5.78.66,0,.26,1.34-.11,1.33-.66,0Zm12-2.19c-.26-.41.17-.41.81,0,.42.27.41.32-.07.32a.94.94,0,0,1-.74-.32Zm-3.24-.88a2.45,2.45,0,0,1-1-.44c-.52-.5,1.27-.33,2,.18s.34.59-1,.26Zm-1.78-8.19c0-.42,1.29-.42,1.29,0s-1.29.43-1.29,0Zm-5.67-3.88c.23-.37,4.19-.51,3.4,0s-3.66.42-3.4,0Zm-4.52-1.92c-.17-.28.5-.44,3.47-.86,2.2-.31,1.9.42,0,.67-.9.11-3.23.58-3.47.19Zm-1.62-12.64a26.53,26.53,0,0,1,6.12-1.63c1.09,0,0,.52-2.83,1.27s-3.78.84-3.29.36Zm.29-5.82c.33-.53,3-1.38,3.94-1.27.77.09.52.24-1.38.84-2.6.81-2.82.85-2.56.43Zm7.22-1.72a1.51,1.51,0,0,1,1.46,0c.64.31.55.35-.73.35s-1.36,0-.73-.35Zm-33.18,37.71c2.46-2.71,1.88-9.19-1.06-11.84-3.85-3.48-10-.56-10.61,5-.13,1.16.75,4.77,1.3,5.31a6.27,6.27,0,0,0,1.69-.37,7.23,7.23,0,0,1,7.28,1.94c.53.64.76.63,1.4-.08Zm-.42-2.48c0-1,1.22-.24.32.31-.17.11-.32,0-.32-.31Zm-5.43-2.12c0-1.53.34-.18.15.57-.09.31-.15,0-.15-.57Zm-4.73-.44c-.46-1.81,1-5.62,2.44-6.39,1.07-.57,1.07-.07,0,1.14a7.2,7.2,0,0,0-1.69,4.39c0,1.29-.51,1.85-.76.86Zm9.9-1.58c-.2-1.12-.46-2.36-.57-2.76-.39-1.31.95-1.15,1.37,2.87.27,2.58-.34,2.5-.8-.11Zm-2.66.06c0-.9.65-.4.65.2s-.65.69-.65-.2Zm-5.5-.67a6.56,6.56,0,0,1,2.16-3.7c1.32-.86.67.48.13,1-1.15,1-2.29,4.85-2.29,2.73Zm3-1a4.34,4.34,0,0,1,.69-2.09c.61-.62.62-.41.09,1.63s-1,2.36-.78.46Zm2.75.26c-.23-.24-.47-2.77.1-2.19s.2,2.5-.1,2.19Zm26.58,8a2.22,2.22,0,0,0-1.46-.74c-1.57-.18-1.34.53.3.93s1.68.64,1.16-.19Zm-76.8-3.45a73.73,73.73,0,0,1,8.14-2.41c1.23,0,1.8.72,1.56,2s-.06,1.16,1.74.44l1.32-.52-1.16-.79c-3.92-2.66-4.38-9.58-.91-13.55,2.58-2.94,7.79-4.28,10.77-2.75a5.28,5.28,0,0,1,1.45,1c.11.18.55.11,1.08-.16,1.33-.69,4.89-.59,7,.2,1.84.69,4.87,3.12,5.2,4.18s2.5.39,4.65,1.95l1.25.91c1-8,1.2-9.17,6.12-22.93,1.93-5.39,1.65-7.44-1.22-8.94-1.59-.82-4.64-.58-7.14.58-1.91.88-2.21,1.13-2,1.7,1.38,4.95,1.69,23.83.37,22.51-.42-.43-1.7-21.68-2-22s-8.9,5.24-13.1,8.59c-2.94,2.34-10.43,9.69-17.45,17.12-4.43,4.69-4.79,4.76-1.72.32a93.92,93.92,0,0,1,26.86-25.28,9.35,9.35,0,0,0,2-1.5c0-.31-3.15-1.45-6.09-2.2-8.13-2.07-13.75-.7-19.65-1.84l1.29-.38c6.69-2,18.06-.92,24.25,2.2l2.31,1.16,5-2.5.23-2.4c.41-4.41-.41-7.81-2.32-9.59-1.48-1.37-6.17-3.49-7.76-3.5-.8,0,1,3.67-1.18,5.28l-.88.66-2.52-.73c-10-2.9-12.85-3.07-16.25-1l-1.09.67c.79.84,2.14,2.11.81,3.28a23.61,23.61,0,0,1-4.56,1.69,43.32,43.32,0,0,0-8.91,3.65c1,.31,2.73.79,3.2,1.55.75,1.19.07,2-2.75,3.11-2.53,1-2.6,1.09-1.83,1.49a31.57,31.57,0,0,0,3.81,1.27c4.62,1.31,4.78,1.61,1.65,3.1-2.05,1-2.13,1-1.22,1.16,2.27.32,13-1.58,16.17-.08,2.22,1,2.42,3.36.35,4.22-2.29,1-5.7-.81-9.6-.12l-1.9.33c1.82,2.17,2.72,2.92-.9,5.41a32.63,32.63,0,0,0-7.49,7.78,20,20,0,0,0-1.65,2.64c0,.13.5.09,1.12-.1a1.85,1.85,0,0,1,1.94.2c1.4.91,1.13,2.25-1,4.9-3,3.74-3.7,6.41-4.94,10.91,2.48-.45,4.25-1.06,9.59-2.84Zm-6-1.92c0-.31,2.68-3.63,5.87-7.27,2.22-2.53,2.55-1.85.38.79-2.42,2.93-6.24,6.89-6.25,6.48Zm7.76-1c0-.64.65-.64.65,0s-.65.64-.65,0Zm1.41-2.24c.09-.24,3.48-6.78,3.44-4.64,0,.64-2.7,4.87-3.2,5-.32.1-.39,0-.24-.4Zm37.63-9.2c-.24-2.09-.15-2.55.46-2.18.39.25.42,2.61,0,3.58-.19.47-.32.1-.5-1.4Zm-40.79-.33a.41.41,0,0,1,.15-.55c.5-.31.82.11.4.53-.23.23-.41.24-.55,0ZM494,635a11.49,11.49,0,0,1,3.6-2.21c.73,0,.45.46-.77,1.25s-3.16,1.49-2.83,1Zm33.4-2.53c-.48-1.73-.14-6.81.46-6.81.32,0,.31,5.18,0,6.64l-.22,1-.23-.81Zm-6.84-1.2c-.24-1.1-.27-5.74-.3-7.57a21.53,21.53,0,0,0-3.84,4.72c-2,3-2.21,2.75-.53-.6,1.46-2.9,7.56-8.4,7.9-9.73.25-1,.79-1.13.79-.18,0,2-3.26,4.5-3.4,4.87v4.5c0,4.4-.22,5.81-.61,4Zm-26.43.1c0-.54,11.51-6.85,10.18-4.7-.24.39-5.17,2.87-7.91,4-2.17.88-2.27.91-2.27.71ZM533,630.05c0-2.5,1.22-3.44.83-1-.27,1.69-.83,2.4-.83,1Zm-20.86-.55s3.37-5.39,3.37-3.87a17.36,17.36,0,0,1-3.26,4.27c-.19,0-.24-.18-.11-.4ZM523.46,627a.37.37,0,0,1,.59-.44c.59.59-.2,1.08-.59.44Zm10.69-3.08c.41-3.2,1.94-6.23,1.8-9.21,0-.73-.12-.76-2-.62-3.78.27-.91-1.11.93-.89l4.43.24c-2.42.69-2.62.5-2.5,2,.11,1.27-1.61,7.91-2.41,9.31-.44.76-.45.71-.26-.79Zm-16.37-2.12a.32.32,0,1,1,.64,0,.32.32,0,0,1-.64,0Zm20.08-3.71c0-.78.51-1.39.87-1s-.2,1.83-.56,1.83c-.17,0-.31-.35-.31-.79ZM533,617c0-.36.21-.65.48-.65.55,0,.57.06.29.78s-.77.64-.77-.13Zm-21.54-.31c-.93-.22-.91-.24.56-.48,1.65-.27,2.68-.07,2.36.46-.23.36-1.44.37-2.92,0Zm-16-.84a10.47,10.47,0,0,1,3.42-1.44c.89,0,.45.58-.84,1.1s-2.58.68-2.58.34Zm3.17-4.54c1.8-.56,6.51-1.25,6.77-1a.27.27,0,0,1,0,.37c-.33.33-5.21,1.13-6.69,1.09l-1.51,0,1.39-.44Zm13.26-.17c-4.1-.43-4.28-1-.24-.81,3.84.2,5.51.46,5.51.88s-1.72.31-5.27-.07Zm15.2-3.43a2.07,2.07,0,0,1-.22-1.08c0-1.27-.81-1.8-3.72-2.42-3.61-.78-7.87-2.06-8.1-2.44-.11-.18,0-.32.13-.32.64,0,9.31,1.92,10.2,2.25a5.15,5.15,0,0,0,1.22.34c.47,0,0-1.64-1.07-4.11-2.41-5.31,1.2.11,1.85,1.68a12.12,12.12,0,0,1,.47,3.72c0,2.39-.18,3-.76,2.38Zm-6.37-1.46c-.8-.37-1.3-.72-1.12-.79.51-.2,2.85.68,3,1.12s-.15.45-1.87-.33Zm-23.32-1.39c3.81-1,13.85-1.23,14.14-.33.07.2-1.41.32-4,.32-2.27,0-5.88.11-8,.23-3.77.23-3.83.23-2.1-.22Zm8.16-2.76c-1.58-.37-1.64-.65-.14-.65s2.34.25,2.34.68-.69.33-2.2,0Zm3.84-2c-3.15-.82-3.79-1.43-1.21-1.14,2.1.23,4.11.95,4.11,1.47s0,.43-2.9-.33Zm18.87,51.76a3.64,3.64,0,0,0,2.51-1.87c.84-1.28,1.33-3.55.76-3.55a13.39,13.39,0,0,0-2,1.62c-1.83,1.67-2.76,2.13-1.94,1a19.32,19.32,0,0,1,4.12-3.54c.16,0,.53-.46.82-1,.54-1.06.83-1.22-1.78-.42-1.06.32-.59-.44.54-.87.62-.23.74-.41.47-.68-.79-.78-3,.31-5.17,2.54a13,13,0,0,1-2,1.9c0-1,2.6-3.88,4.37-4.81l1-.51c-1.48,0-1.69-.15-3.75,1.81s-2.53,2-.89,0c.79-1,.87-1.17.36-.89-2.5,1.34-4.22,6.73-2.79,8.77l.53.76c.3-.36,1.74-2.25,2-1.95.6.61-4.46,3.79,2.82,1.77Zm-1.72-5.07c0-.69,3.56-2.86,1.46-.67-.94,1-1.46,1.22-1.46.67Zm42.18,4c.56-1.26.72-1.41.82-.83.17,1-.7,2-.46,2.26s1.2-1.47,1.75-3.64c.9-3.56.76-.46.44.71-.49,1.79-.14,1.75.68-.08s1.19-5.85.63-6.81c-.67-1.16-.07,1-.69,1.34s-.17-3.26-.65-3.56-.15,2.61-.65,2.91c-.67.41.33-3.65-1.66-4.72-.64-.34-.83-.27-1.64.63-1.54,1.73-1.74,5.4-2.3,4.39-.36-.64.18-2.72,1.11-4.24.62-1,.62-1,0-.85-1.31.34-3.17,2.81-3.61,4.78-.71,3.18.58,7,2.86,8.52l.73.48a10.31,10.31,0,0,1-1.29-4.43c0-2,.18-1.81.82.64.51,2,1.6,4,2.13,4,.16,0,.62-.69,1-1.53Zm.91-2.6c0-1.11,1.09-1,.31.25-.25.39-.31.34-.31-.25Zm-6.49-1.37a7.87,7.87,0,0,1,.46-5.35c.81-1.24,1-.79.35,1a7.2,7.2,0,0,0-.31,3.43c.24,2.09.1,2.34-.5.9Zm-43.69,1.94c.49-5.28,1.87-5.78,1.43-3.81a20.62,20.62,0,0,0-.78,4.62c0,1.16,1-4.44,1.89-5.8a9.34,9.34,0,0,1,3.56-3.26c.91-.29.84-.61-.35-1.62l-1-.86a14,14,0,0,1-2.27,2c-.53,0-.17-1,.58-1.57,1-.76,1-1,.2-1s-2.45,1.88-3.36,3.76c-1.66,3.43-1.64-.16,1.05-3l.68-.73h-.84a3.51,3.51,0,0,0-2.46,1.06,13.39,13.39,0,0,0,0,3.13c.14,2.58.08,3-.73,4.82-1,2.16-.78,2.35-.37,3.79.17-1.23.34-3.08.9-3.08.24,0,.31.52.2,1.54-.21,1.93,0,2.41.84,2.29.6-.09.72-.38.89-2.21Zm1.32-6.5c.18-.55,1-.85.85-.28s-1,.85-.85.28Zm-10.06,7.74a8.27,8.27,0,0,0,4.53-4.06c1.66-3.43.44-8.24-2.58-10.19a3.68,3.68,0,0,0-3.25-.77,8.26,8.26,0,0,0-7.15,5.61,10.15,10.15,0,0,0,.19,5.78,8.17,8.17,0,0,0,4.28,3.63,6.16,6.16,0,0,0,4,0Zm-.2-1.24c-.32-.52,2-.93,1.64-.36-.25.4-1.45.67-1.64.36Zm2.93-2.68a8.34,8.34,0,0,0,.79-4.11c0-1.93.08-2.33.41-2,1,1.05,0,6.53-1.36,7.41-.58.36-.57.26.16-1.3Zm-6.28-.22c.27-.83,1.07,0,.26.26-.22.07-.34,0-.26-.26Zm-4.43-3.49c.59-3.14,3.48-6.24,5.82-6.24,1.11,0,1,.65.26.65S506,638,505.16,639c-1,1.3-3.11,6.77-2.45,3.26Zm7.29.58a.66.66,0,0,1,.29-.49,13.26,13.26,0,0,0,1.52-2c1.27-1.91,1.88-1.94.93,0s-2.74,3.5-2.74,2.55Zm-5.5-.85a7.14,7.14,0,0,1,1.83-2.8,9.68,9.68,0,0,1,4.56-2.19c1.12,0,.87.54-.35.77a9.09,9.09,0,0,0-4.75,3.21c-.72,1.06-1.29,1.51-1.29,1Zm47.9.2c.66-.35.65-.39-.43-1.47a6.46,6.46,0,0,1-1.31-1.77c-.7-2.21-1.21,2-1.79,2.41s-.36-1.51.28-2.91c.73-1.62.56-2.41-.3-1.38-.53.64-.61.66-.62.14,0-.94.73-1.46.58-2.75-.1-.81-.18-.75-1.15.91s-1,1.73-1,.8a4.24,4.24,0,0,1,1.56-3c.46-.37.46-.46,0-1s-.59-.5-1.24.09c-2.95,2.66-2.34,8.93,1,10.29a10,10,0,0,0,4.5-.42Zm-5.73-3c.32-.95,1.48.35.42.35-.3,0-.49-.16-.42-.35Zm14.85.37a9.41,9.41,0,0,0,1.32-10.14c-.93-1.91-1.48-2-.82-.16.56,1.58,1.09,5.07.86,5.67s-.73.43-.73-.43-1.09-7.27-2.42-7.27c-.35,0-.27.42.37,1.81,1.64,3.59,1.19,6.53-.21,2.19-1.27-3.94-2.54-5.9-3.31-5.12a5.34,5.34,0,0,0,.58,2,18.29,18.29,0,0,1,1,3.31c.19,1.27.16,1.38-.27,1a8.79,8.79,0,0,1-1-2.6c-.87-3.22-1-3.34-2.16-2.73s-.75.73-.41,3.71c.19,1.66.17,1.74-.34,1.25-.79-.74-.78-3.2-1.19-3.2-.57,0-.65,1.64-.17,3.28,1.07,3.68-.76,1.74-.76.38,0-.41-.15-.74-.33-.74-.49,0-.38,2.46.17,3.8a7.76,7.76,0,0,0,4.09,4.27c2.86,1.43,4.24,1.36,5.8-.28Zm-2.39.09c-.78-.77.75-1.08.75-.27,0,.51-.38.64-.75.27Zm-1.45-3.05c.32-.95,1.48.35.42.35-.3,0-.49-.16-.42-.35Zm3,.05a.36.36,0,0,1,.61-.38.36.36,0,1,1-.61.38Zm-5.77-.24a16,16,0,0,1-.6-3.51l.52.91c.51.88.58,3.38.08,2.6Zm3.32-2.38c0-.42,1-.42,1,0s-1,.43-1,0Zm-21.4,6.17c.45-.24.6-.74.63-2.19.08-3.34,1.94-10,4.56-16.27,1-2.37,1.5-3.05,2-2.72a15.38,15.38,0,0,1,1.43,2.49c1.83,3.62,4.64,7.48,5.1,7a17.68,17.68,0,0,0-1.81-3.05,71.08,71.08,0,0,1-3.55-6.16c-1.6-3.22-1.61-3.27-1.22-4.81.32-1.3.31-1.61-.06-1.85-.55-.34-.72.06-1.25,2.91a52.73,52.73,0,0,1-1.86,6.15,103.63,103.63,0,0,0-4.33,14.38c-.88,4.47-.86,4.76.32,4.13Zm3.28-2.69c1.71-3.67,1.62-6.1,1.44-9.79l-.72,2.27c-1,3.12-2.22,9.55-1.83,9.55a9.53,9.53,0,0,0,1.11-2Zm5.4-10.12c.27-.82.15-1.31-.76-3.21L543.71,622l-.66,1.53c-.79,1.84-.8,2-.17,2.25a4.42,4.42,0,0,1,1.2,1.66c.75,1.55.95,1.55,1.46,0Zm7.86-1.61a6.13,6.13,0,0,1,1.62-.81c.6,0,.35-.33-1.76-2.3-3-2.81-4.46-5.17-6.49-10.5-.2-.52-.33-.34-.69,1-.62,2.3-.57,2.67.64,5,1.11,2.17,5,8.43,5.27,8.43a11.41,11.41,0,0,0,1.41-.81Zm9.11-1a22.75,22.75,0,0,0,1.58-8.19c0-5.55,2.5-.37,1.79-2.66-1.3-4.18-5.83-7-3.76-9,1.35-1.36,2.33-.75,4.37,2.76,1.31,2.25,3.53,4.68,5,5.41l.95.49,0-1.51c0-1.29.08-1.53.65-1.61a4.41,4.41,0,0,1,2.27,1.17c2.65,2.1,6.34,3.62,8.79,3.62,1.85,0,.27-.39.48-2.2.09-.73.24-.86.91-.78a27.93,27.93,0,0,0,9.07-.1l2.24-.55c-1.74-3.43-2.65-5.31-6.26-7.74-3-2-3.34-3.26-1.42-4.82.61-.49.6-.52-.34-1.22a33.44,33.44,0,0,0-8.19-3.85,15.47,15.47,0,0,0-8.51.17c-2.13.76-3.17.85-4.1.35s-.81-1.94,0-2.85a14.26,14.26,0,0,1,5.16-2.68c2.81-.82,8.11-6,8.1-7,0-.4-6.18-2.34-8.74-2.75a15.67,15.67,0,0,0-3.68-.14c-1.91.25-3.13-.38-3.13-1.62,0-1-.28-1-3.66-.33-7.41,1.42-8.57,6.34-10.91,6.34a2.11,2.11,0,0,1-1.95-2.24v-.8a11.59,11.59,0,0,0-2.87,3.75c-1.6,3.11-1.31,5,1.18,7.85,1.34,1.51,2.52,1.47,4.78,1.89a56.57,56.57,0,0,0,4.6-3.4c.75-.94,1.94-6.12,4-8.52s1.64-1.37.26,1a35.51,35.51,0,0,0-2.89,7l3.3-1.76c3.25-1.73,7.52-3.44,8.58-3.44.8,0-2.09,1.86-8.45,5.43-8.18,4.58-7.77,4-3.6,5.08,2,.5,5.71,1.62,8.38,2.49,5.49,1.79,6.56,1.88,10.32.87,2.93-.79,8.47-1,9.94-.34.65.29.15.36-2.59.37a39.76,39.76,0,0,0-10,1.55c-.27.08,1,.88,2.91,1.8,5.52,2.7,2.24,1.84-1.92.56a33.53,33.53,0,0,0-4.44-1.19c-.21.21,4.81,4.61,7.83,6.86s3.21,2.62.63,1.25c-2-1.06-3.46-2.19-6.95-5.42-3.65-3.37-5-4.18-8.7-5.33-4.67-1.45-8.19-2.39-8.35-2.22a12.3,12.3,0,0,0-.49,2.21,40.27,40.27,0,0,0,.39,10.66c.45,2.12,1,3,4,6.06s2,3.1-1.33,0c-.76-.73-1.38-1.18-1.37-1,0,.66,3,9.75-.46,2.6a29.63,29.63,0,0,1-3.11-13.87,11,11,0,0,0-.19-2.83c-.76,0-4.49,2.63-5.88,4.14-1.9,2.08-2.19,1.93-.73-.37a8.7,8.7,0,0,1,2.94-2.74c4.47-2.71,4-2.34,4.78-5.21-2.21-.66-5.72-1.49-6.86-1.21s-3.87,2.83-5.09,4.6-1.15,1.76-.35,1.76c1,0,1.26.67,1.42,3.89a11.85,11.85,0,0,0,1.26,5.6c.54-.9,1.06-2,2-2s1.28.36,2.28,3a23.67,23.67,0,0,0,5.3,8.8c2.11,2.15,7,5.67,7.79,5.67.23,0,.72-.66,1.07-1.46Zm-2.91-4.64c-.78-1.09-1-2.89.23-.94.95,1.53.75,2.32-.23.94ZM551,614.89c-.16-.49-.57-1.42-.18-1.66.16-.1.38.27.5.82.24,1.06,0,1.74-.32.84Zm25.95-4.12c-1.46-1.62-1.8-2.24-1.21-2.24.37,0,3.09,3.53,2.88,3.74s-.85-.58-1.67-1.5Zm-18.65.21c-1-1.63-.65-2.18.46-.72.63.83.81,1.32.59,1.54s-.56,0-1.05-.82Zm3.25-.42c-1-1.17-1.22-1.71-.79-1.71.59,0,3.54,5,.79,1.71ZM550.38,610c-.32-1.37.43-4.13.43-4.57,0-.07.15-.12.32-.12.49,0-.18,3.67-.52,5.67l-.23-1Zm37.36,0c-.62-.29-1-.58-.73-.67.53-.2,2.67.52,2.67.9s-.64.35-1.94-.23Zm2.09-2.59c-1.78-1.17-4.06-2.55-5.09-3.07-2-1-2.5-1.72-1-1.28a20,20,0,0,1,5.41,3c5.09,3.52,5.63,4.69.63,1.38Zm-33.9-.64c-.76-1.68-1-5.43-.47-8,.45-2.25.89-1,.67,2a13.61,13.61,0,0,0,.35,5,7.19,7.19,0,0,1,.36,2.4c-.1.11-.51-.52-.91-1.4Zm25.45.9c-1.89-.66-3.68-1.73-3.16-1.9a29.27,29.27,0,0,1,6,2.36c0,.28-1.22.08-2.8-.46Zm-11.41-1c-.27-1-.91-2.59-.4-2.59s1.08,2.41.92,3.35c-.09.51-.23.31-.52-.76Zm-22.06-.23c0-.55,1.83-2.57,2.1-2.3s-2.09,2.81-2.1,2.3Zm11-1.27c-.4-1.4-.85-5.55-.58-5.3a33.75,33.75,0,0,1,1.08,6.39c-.08.08-.31-.41-.5-1.09Zm-15.57-2.5c0-.36,1.91-1.18,2.74-1.18,1.18,0,1,.53-.23.75-.58.11-2.51.67-2.51.43Zm1.59-3.65c1.86-.85,4.56-1,4.81-.22.09.27-.2.34-1,.21-1.87-.3-8,1.91-3.86,0Zm28.86-1.36c0-.34,2-1.62,3.16-2,2-.71,1.62-.12-.75,1.05a8,8,0,0,1-2.41,1ZM566,595.35c-1-.27-.69-1.24,1.37-.08,1,.56-1.32.09-1.37.08Zm-3.65-.94-4.21-.7c1.46,0,4-.16,5,.4.71.41.73.46.16.45a3.73,3.73,0,0,1-1-.15Zm-12.09-4a6,6,0,0,1-2-4.12c0-1.72,1.17,2.51,2.69,3.7.81.64,1.14,1.39.6,1.39a5.28,5.28,0,0,1-1.31-1Zm2.61-1c-.37-.45-.49-1.2-.43-2.65s.3-.92.68,1.1c.35,1.85.29,2.21-.25,1.55Zm2.54-3.24a9.55,9.55,0,0,1,1-4.3l-.33,4.94c0,1.74-.66,2.14-.63-.64Zm14.88.87c0-.2,1.5-.86,4.53-2,1.92-.7,2-.71,1.3-.13s-5.83,2.82-5.83,2.11Zm-6.72-2.56a26.83,26.83,0,0,1,4.94-3.45c-2,1.79-5.4,4.9-6.06,4.88-.23,0,.27-.65,1.12-1.43Zm5.76-1.61a13,13,0,0,1,4.44-1.81c.85,0-.35.71-2.62,1.56s-2.45.87-1.82.25Zm-6.17-3.1a.33.33,0,0,1,.65,0,.33.33,0,0,1-.65,0Zm-21.89,27.77a9.67,9.67,0,0,0-.36-1.86c-.18-.19-1.71,1.77-2,2.09l2.46,1.46a8.52,8.52,0,0,0-.12-1.69Zm-2.89-1.86c2.08-2.11,1.28-2.11-.91,0s-1.15,2.11.91,0Zm5.41-10.56c1-.76.88-1.1-.23-1.1-.82,0-1.14.86-1.44,1.46l0-.81c.06-1.07-.69-2.59-1.29-2.59-.35,0-.38-.11-.12-.42.42-.52.13-1.85-.41-1.85s-.14-2.16-.85-2.71c-1-.77-.11-1.82-1.14-1.82-.27,0-.41-.15-.3-.33.39-.64-.19-1.69-.84-1.52s-.85-.24-.29-.59a.36.36,0,1,0-.39-.61c-.21.14-.25,0-.12-.45.22-.7-.28-1.28-.62-.72a1,1,0,0,1-.72.33c-1,0,.73-.78.36-1.73-.18-.47-.29-.48-1.14,0-1.1.58-1.26.12-.21-.59s.51-.94-.7-.2l-1.08.65.66.71c1.9,2.08,6.79,10.64,8.2,14.38.82,2.17.65,2.13,2.62.55Z"/></svg>