<svg id="Capa_1" data-name="Capa 1" xmlns="http://www.w3.org/2000/svg" viewBox="0 0 1080 1080"><defs><style>.cls-1,.cls-2{fill:#fff;}.cls-2{stroke:#000;stroke-miterlimit:10;stroke-width:0.3px;}</style></defs><path class="cls-1" d="M959.91,565.09V493.83c0-3.34-1.58-5-4.78-5s-4.92,1.76-4.92,5.23v71.06c0,3.47,1.65,5.22,4.92,5.22s4.78-1.75,4.78-5.22M988,586.49H966.76l-2.4-3.81A26.56,26.56,0,0,1,948,588.11c-7.18,0-13.28-1.69-18.34-5.06s-7.55-7.92-7.55-13.72V486.92a13.55,13.55,0,0,1,6-11.6A24.13,24.13,0,0,1,942.52,471q11.68,0,17.39,4.24V444.92H988Zm-100.49-21.4V535.52q-9.7,2.38-9.71,8.7v20.87c0,3.47,1.69,5.22,5.06,5.22C886,570.31,887.54,568.56,887.54,565.09Zm28.11,21.4H890.81V582c-2.12,4.05-8.16,6.07-18.07,6.07q-23,0-23-18v-23a18.62,18.62,0,0,1,5.6-13.45q5.55-5.71,22.45-14.33c6.5-3.3,9.77-5.93,9.77-7.89v-17c0-3.74-1.62-5.63-4.85-5.63-3.71,0-5.53,4.59-5.53,13.72,0,1.66.07,4.08.27,7.32s.4,5.66.4,7.31h-27.1V494.23q0-23.21,33.54-23.22,31.4,0,31.38,24.2Zm-100.72-21.4V493.83c0-3.34-1.58-5-4.78-5s-4.93,1.76-4.93,5.23v71.06c0,3.47,1.66,5.22,4.93,5.22S814.93,568.56,814.93,565.09Zm28.12,21.4H821.77l-2.39-3.81A26.56,26.56,0,0,1,803,588.11c-7.18,0-13.28-1.69-18.34-5.06s-7.55-7.92-7.55-13.72V486.92a13.55,13.55,0,0,1,6-11.6A24.11,24.11,0,0,1,797.54,471q11.69,0,17.39,4.24V444.92h28.12Zm-71.8,0H743.13V471.82h28.12Zm0-120.94H743.13V444.92h28.12Zm-33.78,57H709.36V494.43c0-3.74-1.59-5.63-4.79-5.63s-4.92,1.89-4.92,5.63v70.05c0,3.88,1.65,5.83,4.92,5.83s4.79-1.92,4.79-5.8V536.94h28.11v27.94q0,23.22-32.53,23.23-33.42,0-33.4-24.2v-68.7q0-24.22,33.4-24.2,32.52,0,32.53,23.19Zm-71.8,63.94H637.56V471.82h28.11Zm0-120.94H637.56V444.92h28.11ZM631.73,586.49H603.61V444.92h28.12ZM569,565.09V494c0-3.47-1.59-5.23-4.79-5.23s-4.92,1.69-4.92,5v71.26c0,3.47,1.65,5.22,4.92,5.22S569,568.56,569,565.09Zm-14.16,17.59-2.39,3.81H531.21V444.92h28.11v30.33c3.37-2.83,9.17-4.24,17.49-4.24a25.32,25.32,0,0,1,14,4.11,13.2,13.2,0,0,1,6.37,11.8v82.41c0,5.8-2.53,10.39-7.62,13.72s-11.16,5.06-18.27,5.06Q563,588.11,554.87,582.68Zm-29.73,3.81H497v-3.81q-5.4,5.42-17.39,5.43a23.82,23.82,0,0,1-14.36-4.38,13.62,13.62,0,0,1-6.07-11.53V471.82h28.12v93.27c0,3.47,1.65,5.22,4.92,5.22s4.78-1.68,4.78-5V471.82h28.12ZM423.64,506.6v-34q0-7.47-10.31-7.48v49Q423.64,514.09,423.64,506.6Zm-10.31,27.71v52.18H383V444.92h32.7c12.94,0,22.58,1.65,28.85,4.92S454,459.85,454,470v39.24c0,9.31-2.56,15.84-7.69,19.69S430.18,534.58,413.33,534.31ZM346,560.77V524.94c0-5-2.9-7.42-8.7-7.42v50.77C343.11,568.29,346,565.8,346,560.77Zm0-66.13V470.53c0-4.95-2.9-7.41-8.7-7.41v39C343.11,502.15,346,499.66,346,494.64Zm-39.84,91.85V444.92h36.67q13.16,0,22.82,6T375.37,470v19.65q0,14.92-18.17,21,19.17,4.75,19.15,20.47v27.47c0,9.33-3,16.35-9.14,21s-13.38,7-21.81,7ZM124.71,506.6v-34q0-7.47-10.31-7.48v49Q124.7,514.09,124.71,506.6ZM114.4,534.31v52.18H84.06V444.92h32.7c12.94,0,22.58,1.65,28.85,4.92s9.44,10,9.44,20.15v39.24c0,9.31-2.56,15.84-7.69,19.69S131.25,534.58,114.4,534.31Z"/><path class="cls-1" d="M228.84,586.49H214l-4-7.78q-10.27,9-21.68,9a33.38,33.38,0,0,1-19.45-5.77q-8.34-5.76-8.32-18.4V471.21q0-27.51,35.05-27.51,33.33,0,33.31,25.08v26.29H200.52V466.56c0-2.3-1.48-3.44-4.45-3.44s-4.45,1.14-4.45,3.44v97.89c0,2.29,1.49,3.43,4.45,3.43s4.45-1.14,4.45-3.47V538h-6.06V516.31h34.38Z"/><polygon class="cls-1" points="300.47 463.32 283.07 463.32 283.07 586.49 251.93 586.49 251.93 463.32 234.53 463.32 234.53 444.92 300.47 444.92 300.47 463.32"/><path class="cls-1" d="M97.3,607.21v13.84c.4,0,.74,0,1,0a3.21,3.21,0,0,0,2.69-1c.49-.63.75-2,.75-4v-4.48c0-1.85-.29-3.07-.87-3.63s-1.78-.83-3.6-.83m-14.16-9.28H97.38a33.7,33.7,0,0,1,8.88.9,10.06,10.06,0,0,1,4.66,2.62,9.14,9.14,0,0,1,2.12,4.14,38.16,38.16,0,0,1,.54,7.54v4.73c0,3.46-.35,6-1.07,7.57a7.34,7.34,0,0,1-3.93,3.66,18.62,18.62,0,0,1-7.49,1.27H97.3v21.92H83.14Z"/><path class="cls-1" d="M149.73,597.93v36.34a64.55,64.55,0,0,1-.4,8.68,12,12,0,0,1-2.38,5.14,12.38,12.38,0,0,1-5.22,4,19.73,19.73,0,0,1-7.63,1.36,21.46,21.46,0,0,1-8.58-1.61,13,13,0,0,1-5.57-4.2,11.65,11.65,0,0,1-2.18-5.46q-.33-2.86-.34-12.07V597.93h14.16V638.7a16.08,16.08,0,0,0,.38,4.55,1.48,1.48,0,0,0,1.53,1,1.62,1.62,0,0,0,1.7-1.09,21,21,0,0,0,.37-5.15V597.93Z"/><polygon class="cls-1" points="186.75 597.93 186.75 652.28 174.38 652.28 167.03 627.57 167.03 652.28 155.21 652.28 155.21 597.93 167.03 597.93 174.94 622.4 174.94 597.93 186.75 597.93"/><polygon class="cls-1" points="220.87 597.93 220.87 608.79 212.56 608.79 212.56 652.28 198.4 652.28 198.4 608.79 190.02 608.79 190.02 597.93 220.87 597.93"/><path class="cls-1" d="M242.17,611.94a17.42,17.42,0,0,0-.41-4.85,1.63,1.63,0,0,0-1.68-1.05,1.85,1.85,0,0,0-1.66.86c-.38.56-.58,2.24-.58,5V637.3a25.4,25.4,0,0,0,.38,5.83,1.63,1.63,0,0,0,1.75,1.11,1.7,1.7,0,0,0,1.81-1.27,27,27,0,0,0,.39-6.07Zm14.16,17.85q0,8.19-.39,11.59a13,13,0,0,1-7.89,10.56,19.92,19.92,0,0,1-8,1.51,20.37,20.37,0,0,1-7.82-1.43,12.77,12.77,0,0,1-5.58-4.27,12.9,12.9,0,0,1-2.52-6.21,114.67,114.67,0,0,1-.4-11.75v-9.3a113.92,113.92,0,0,1,.39-11.59,12.92,12.92,0,0,1,2.4-6.23,13,13,0,0,1,5.49-4.33,19.85,19.85,0,0,1,8-1.51,20.37,20.37,0,0,1,7.82,1.43,12.83,12.83,0,0,1,5.58,4.27,13.1,13.1,0,0,1,2.52,6.21q.39,3.38.4,11.75Z"/><path class="cls-1" d="M306.12,618H292v-4.93a25.16,25.16,0,0,0-.39-5.84A1.76,1.76,0,0,0,289.7,606a1.73,1.73,0,0,0-1.74,1c-.31.66-.46,2.39-.46,5.16v26.07a15.76,15.76,0,0,0,.46,4.81,1.79,1.79,0,0,0,1.83,1.15,2,2,0,0,0,2-1.3,15.72,15.72,0,0,0,.54-5.11v-6.44h-2.75v-8.24h16.49v29.13h-8.9l-1.3-3.89a10.05,10.05,0,0,1-3.63,3.79,10.17,10.17,0,0,1-5.18,1.27,13.36,13.36,0,0,1-6.65-1.73,12.81,12.81,0,0,1-4.7-4.28,13.46,13.46,0,0,1-2-5.35,63.79,63.79,0,0,1-.41-8.41V617.54a54,54,0,0,1,.84-11.31c.56-2.36,2.17-4.51,4.81-6.47s6.07-2.93,10.27-2.93a19.12,19.12,0,0,1,10.29,2.55,12.11,12.11,0,0,1,5.33,6.06,32.18,32.18,0,0,1,1.24,10.21Z"/><path class="cls-1" d="M325.8,607.21V619.3a6.17,6.17,0,0,0,3.31-.65c.63-.44.95-1.86.95-4.25v-3c0-1.73-.31-2.86-.92-3.4a5.16,5.16,0,0,0-3.34-.8m-14.16-9.28h10q10,0,13.54.77a9.32,9.32,0,0,1,5.77,3.95c1.49,2.1,2.23,5.48,2.23,10.11q0,6.35-1.58,8.52t-6.21,2.61c2.8.7,4.69,1.63,5.65,2.8a8.17,8.17,0,0,1,1.79,3.2,50.23,50.23,0,0,1,.35,8v14.35H330.06V634.2q0-4.37-.69-5.41c-.45-.7-1.64-1-3.57-1v24.53H311.64Z"/><path class="cls-1" d="M365.52,632.9q-1-9.24-2.14-22.89-2.08,15.68-2.65,22.89Zm7.51-35,8.08,54.35H366.67l-.77-9.76h-5.09l-.77,9.76H345.41l7.17-54.35Z"/><polygon class="cls-1" points="383.54 597.93 407.45 597.93 407.45 608.79 397.69 608.79 397.69 619.16 406.35 619.16 406.35 629.47 397.69 629.47 397.69 652.28 383.54 652.28 383.54 597.93"/><rect class="cls-1" x="410.89" y="597.93" width="14.16" height="54.35"/><path class="cls-1" d="M463.67,621.64H449.52V612.2a17,17,0,0,0-.45-5.14,1.93,1.93,0,0,0-2-1,2.06,2.06,0,0,0-2.19,1.23,19.18,19.18,0,0,0-.47,5.38v25.21a17.8,17.8,0,0,0,.47,5.18,2,2,0,0,0,2.08,1.2,2,2,0,0,0,2-1.21q.5-1.2.49-5.69V630.5h14.15v2.12q0,8.45-1.19,12a12.18,12.18,0,0,1-5.27,6.19,18,18,0,0,1-10,2.66,20.84,20.84,0,0,1-10.24-2.24,11,11,0,0,1-5.34-6.23q-1.31-4-1.3-12V617.13a70.31,70.31,0,0,1,.4-8.8,12.25,12.25,0,0,1,2.4-5.66,13.37,13.37,0,0,1,5.53-4.28,20,20,0,0,1,8.15-1.56,19.83,19.83,0,0,1,10.3,2.42,11.54,11.54,0,0,1,5.34,6q1.28,3.6,1.27,11.21Z"/><path class="cls-1" d="M486.8,611.94a17,17,0,0,0-.41-4.85,1.62,1.62,0,0,0-1.68-1.05,1.87,1.87,0,0,0-1.66.86q-.57.84-.57,5V637.3a25.65,25.65,0,0,0,.37,5.83,1.64,1.64,0,0,0,1.76,1.11,1.7,1.7,0,0,0,1.8-1.27,27,27,0,0,0,.39-6.07ZM501,629.79q0,8.19-.39,11.59a12.83,12.83,0,0,1-2.41,6.23,13,13,0,0,1-5.48,4.33,19.85,19.85,0,0,1-8,1.51,20.37,20.37,0,0,1-7.82-1.43,12.77,12.77,0,0,1-5.58-4.27,13,13,0,0,1-2.52-6.21q-.39-3.36-.4-11.75v-9.3q0-8.19.39-11.59a12.92,12.92,0,0,1,2.4-6.23,13.11,13.11,0,0,1,5.49-4.33,19.85,19.85,0,0,1,8-1.51,20.37,20.37,0,0,1,7.82,1.43,12.83,12.83,0,0,1,5.58,4.27,13,13,0,0,1,2.52,6.21q.39,3.38.4,11.75Z"/><polygon class="cls-1" points="546.84 597.93 546.84 608.79 538.52 608.79 538.52 652.28 524.37 652.28 524.37 608.79 515.99 608.79 515.99 597.93 546.84 597.93"/><rect class="cls-1" x="550.07" y="597.93" width="14.15" height="54.35"/><polygon class="cls-1" points="569.87 597.93 593.44 597.93 593.44 608.79 584.02 608.79 584.02 619.16 592.82 619.16 592.82 629.47 584.02 629.47 584.02 641.42 594.4 641.42 594.4 652.28 569.87 652.28 569.87 597.93"/><path class="cls-1" d="M612.57,607.21V619.3a6.17,6.17,0,0,0,3.31-.65c.63-.44,1-1.86,1-4.25v-3c0-1.73-.31-2.86-.91-3.4a5.18,5.18,0,0,0-3.35-.8m-14.15-9.28h10q10,0,13.53.77a9.27,9.27,0,0,1,5.77,3.95c1.49,2.1,2.24,5.48,2.24,10.11q0,6.35-1.58,8.52c-1,1.46-3.12,2.33-6.21,2.61,2.79.7,4.68,1.63,5.65,2.8a8.14,8.14,0,0,1,1.78,3.2,49.7,49.7,0,0,1,.36,8v14.35H616.83V634.2q0-4.37-.68-5.41c-.45-.7-1.64-1-3.58-1v24.53H598.42Z"/><path class="cls-1" d="M649.58,607.21V619.3a6.17,6.17,0,0,0,3.31-.65c.63-.44,1-1.86,1-4.25v-3c0-1.73-.31-2.86-.92-3.4a5.16,5.16,0,0,0-3.34-.8m-14.16-9.28h10q10,0,13.54.77a9.32,9.32,0,0,1,5.77,3.95c1.49,2.1,2.23,5.48,2.23,10.11q0,6.35-1.58,8.52c-1,1.46-3.12,2.33-6.21,2.61,2.8.7,4.69,1.63,5.65,2.8a8.17,8.17,0,0,1,1.79,3.2,50.23,50.23,0,0,1,.35,8v14.35H653.84V634.2q0-4.37-.69-5.41c-.45-.7-1.64-1-3.57-1v24.53H635.42Z"/><path class="cls-1" d="M689.3,632.9q-1-9.24-2.14-22.89-2.1,15.68-2.65,22.89Zm7.5-35,8.09,54.35H690.45l-.77-9.76h-5.09l-.77,9.76H669.19l7.17-54.35Z"/><path class="cls-1" d="M737.21,614.42H724.08v-4a8.06,8.06,0,0,0-.5-3.6,1.82,1.82,0,0,0-1.66-.76,2.1,2.1,0,0,0-1.92,1,5.92,5.92,0,0,0-.66,3.14,8.79,8.79,0,0,0,.75,4.09q.72,1.35,4,3.32,9.4,5.61,11.85,9.22t2.45,11.56q0,5.8-1.37,8.57a10.51,10.51,0,0,1-5.24,4.6,20.58,20.58,0,0,1-9,1.87A20.29,20.29,0,0,1,713,651.3a10.62,10.62,0,0,1-5.24-5.47,28.06,28.06,0,0,1-1.24-9.43v-3.56h13.13v6.6c0,2,.18,3.35.55,3.93a2.1,2.1,0,0,0,2,.87,2.28,2.28,0,0,0,2.1-1.11,6.24,6.24,0,0,0,.69-3.27q0-4.8-1.31-6.27a43.13,43.13,0,0,0-6.61-5,65.6,65.6,0,0,1-7-5.07,12,12,0,0,1-2.83-4.36,19.41,19.41,0,0,1-1.12-7.11c0-4.16.53-7.21,1.59-9.13a10.68,10.68,0,0,1,5.14-4.51,20.43,20.43,0,0,1,8.58-1.63,22.44,22.44,0,0,1,9.37,1.78c2.58,1.19,4.28,2.68,5.12,4.48s1.26,4.86,1.26,9.18Z"/><path class="cls-1" d="M769.13,627.75V643c1.94-.07,3.19-.38,3.73-.94s.8-2,.8-4.15v-5.08c0-2.34-.24-3.75-.72-4.25s-1.75-.77-3.81-.84m0-20.54V619.3l1.38,0c1.35,0,2.22-.35,2.59-1s.56-2.65.56-5.87a9.61,9.61,0,0,0-.46-3.58,2.31,2.31,0,0,0-1.2-1.3A10.84,10.84,0,0,0,769.13,607.21ZM755,597.93H769a36.83,36.83,0,0,1,10.11,1,10,10,0,0,1,5.54,4.2q2.12,3.18,2.11,10.22,0,4.75-1.49,6.63c-1,1.26-3,2.21-5.9,2.89,3.27.74,5.5,2,6.66,3.67s1.76,4.34,1.76,7.89v5c0,3.68-.43,6.39-1.26,8.17a6.82,6.82,0,0,1-4,3.63q-2.74,1-11.27,1H755Z"/><polygon class="cls-1" points="807.07 597.93 807.07 641.42 815.59 641.42 815.59 652.28 792.91 652.28 792.91 597.93 807.07 597.93"/><path class="cls-1" d="M837.63,632.9q-1-9.24-2.14-22.89-2.09,15.68-2.65,22.89Zm7.51-35,8.08,54.35H838.78l-.77-9.76h-5.09l-.77,9.76H817.52l7.17-54.35Z"/><polygon class="cls-1" points="887.19 597.93 887.19 652.28 874.82 652.28 867.47 627.57 867.47 652.28 855.65 652.28 855.65 597.93 867.47 597.93 875.37 622.4 875.37 597.93 887.19 597.93"/><path class="cls-1" d="M925.84,621.64H911.68V612.2a17.13,17.13,0,0,0-.44-5.14,1.93,1.93,0,0,0-2-1,2.06,2.06,0,0,0-2.19,1.23,19.18,19.18,0,0,0-.47,5.38v25.21a17.8,17.8,0,0,0,.47,5.18,2,2,0,0,0,2.08,1.2A2,2,0,0,0,911.2,643a20,20,0,0,0,.48-5.69V630.5h14.16v2.12q0,8.45-1.19,12a12.23,12.23,0,0,1-5.27,6.19,18,18,0,0,1-10,2.66,20.84,20.84,0,0,1-10.24-2.24,11,11,0,0,1-5.34-6.23q-1.31-4-1.31-12V617.13a69.89,69.89,0,0,1,.41-8.8,12.25,12.25,0,0,1,2.4-5.66,13.37,13.37,0,0,1,5.53-4.28,22.65,22.65,0,0,1,18.45.86,11.58,11.58,0,0,1,5.34,6q1.27,3.6,1.27,11.21Z"/><path class="cls-1" d="M947.78,632.9q-1-9.24-2.14-22.89-2.1,15.68-2.66,22.89Zm7.5-35,8.09,54.35H948.93l-.77-9.76h-5.1l-.76,9.76H927.67l7.17-54.35Z"/><path class="cls-1" d="M995.69,614.42H982.56v-4a8.06,8.06,0,0,0-.5-3.6,1.82,1.82,0,0,0-1.66-.76,2.13,2.13,0,0,0-1.93,1,6,6,0,0,0-.65,3.14,8.79,8.79,0,0,0,.75,4.09q.72,1.35,4,3.32,9.41,5.61,11.84,9.22t2.46,11.56q0,5.8-1.37,8.57a10.51,10.51,0,0,1-5.24,4.6,20.58,20.58,0,0,1-9,1.87,20.29,20.29,0,0,1-9.68-2.15,10.54,10.54,0,0,1-5.24-5.47A28.06,28.06,0,0,1,965,636.4v-3.56h13.13v6.6a8.91,8.91,0,0,0,.54,3.93,2.12,2.12,0,0,0,2,.87,2.28,2.28,0,0,0,2.1-1.11,6.24,6.24,0,0,0,.69-3.27q0-4.8-1.31-6.27a43.13,43.13,0,0,0-6.61-5,64.52,64.52,0,0,1-7-5.07,12,12,0,0,1-2.83-4.36,19.41,19.41,0,0,1-1.12-7.11c0-4.16.53-7.21,1.59-9.13a10.68,10.68,0,0,1,5.14-4.51,20.4,20.4,0,0,1,8.58-1.63,22.44,22.44,0,0,1,9.37,1.78q3.86,1.78,5.12,4.48c.83,1.8,1.26,4.86,1.26,9.18Z"/><line class="cls-2" x1="83.14" y1="437.97" x2="83.14" y2="426.55"/></svg>