<svg id="Capa_1" data-name="Capa 1" xmlns="http://www.w3.org/2000/svg" viewBox="0 0 1080 1080"><defs><style>.cls-1,.cls-2,.cls-3{fill:#fff;}.cls-2{stroke:#fff;stroke-miterlimit:10;}.cls-3{fill-rule:evenodd;}</style></defs><path class="cls-1" d="M131.85,520.42c0,16.69,19.23,19,35.08,23.67,21.13,6.34,37.82,16.69,37.82,43.95,0,26.63-15.22,45-56.21,45-11,0-24.94-1.26-35.71-6.34s-14.8-12-14.8-22.4c0-5.07.85-6.76,3.18-6.76a16.72,16.72,0,0,1,6.33,1.9c12.26,5.29,22.61,9.09,38.68,9.09,14.79,0,29.79-3,29.79-18.81,0-17.33-17.75-21.13-33-25.15-21.77-5.7-39.94-17.11-39.94-42.68,0-31.07,22-43.75,54.09-43.75,15.64,0,28.53,3,36.56,9.3,7,5.71,8,12.05,8,17.33,0,5.71-1.26,7.82-7.18,5.5-11-4.23-20.5-7.61-36.14-7.61C140.3,502.67,131.85,508.37,131.85,520.42Z"/><path class="cls-1" d="M304.69,505.2H287.37V619.74c0,8.87-1.48,10.56-10.36,10.56h-7.4c-8.87,0-10.56-1.69-10.56-10.56V505.2H224.6c-7.6,0-9.08-1.48-9.08-9.08v-6.34c0-7.61,1.48-9.09,9.08-9.09h97c6.34,0,8.24,0,8.24,4.65C329.84,495.06,322.23,505.2,304.69,505.2Z"/><path class="cls-1" d="M421.33,598.61h-61.7l-8.67,23c-2.74,7.4-4.86,8.66-12.68,8.66H327.93c-6.76,0-8.24-3.16-6.13-8.87l52.41-132.71c2.74-6.76,4.65-8,12.46-8h8c8.45,0,10.14,1.9,12.46,8.24l52.2,132.92c1.9,5.29.63,8.45-5.28,8.45H442.46c-7.82,0-9.72-1.26-12.46-8.66Zm-52.41-24.52H412l-21.55-56.84Z"/><path class="cls-1" d="M673.26,525.15h-32.1V629.08c0,.92-.3,1.22-1.22,1.22H639c-.92,0-1.22-.3-1.22-1.22V525.15H603.72c-1.68,0-2-.15-2-1.37v-.46c0-1.07.31-1.23,2-1.23H675.4c1.07,0,1.37.31,1.37,1.08S675.7,525.15,673.26,525.15Z"/><path class="cls-1" d="M736.07,632.29c-33.93,0-49.21-24.15-49.21-55.33,0-31.48,15.89-56.7,49.21-56.7,33.63,0,49.22,25.22,49.22,56.7C785.29,608.14,770.31,632.29,736.07,632.29Zm0-3.06c33.63,0,45.85-25.21,45.85-52.42,0-27.82-12.38-53.49-45.85-53.49S690.22,549,690.22,576.81C690.22,604,702.6,629.23,736.07,629.23Z"/><path class="cls-1" d="M817.38,595.76c0,18.65,8.86,33.47,30.57,33.47,23.38,0,32.09-14.82,32.09-33.47V523.62c0-1.22.15-1.53,1.53-1.53h.31c1.52,0,1.52.31,1.52,1.53v72.3c0,21.55-10.85,36.37-35.45,36.37-23.24,0-33.94-14.82-33.94-36.37v-72.3c0-1.22.16-1.53,1.53-1.53h.31c1.53,0,1.53.31,1.53,1.53Z"/><path class="cls-1" d="M922.53,585.52v43.56c0,.92-.31,1.22-1.23,1.22h-.92c-.91,0-1.22-.3-1.22-1.22V523.17c0-.77.31-1.08,1.07-1.08h22.32c20.78,0,36.06,9.48,36.06,30.72,0,19.72-10.84,29.5-27,32.1l30.1,44c.46.61.46,1.37-.61,1.37h-.61c-1.53,0-1.68,0-2.29-.91l-29.81-44.17c-2,.15-3.82.3-5.8.3Zm0-60.37v57.32h20c19.87,0,32.7-8.56,32.7-29.66,0-19.25-12.83-27.66-32.7-27.66Z"/><polygon class="cls-1" points="570.01 508.2 572.12 511.78 570.01 508.2 570.01 508.2"/><polygon class="cls-1" points="559.96 507.42 566.65 499.88 564.28 490.08 566.65 499.88 559.96 507.42"/><path class="cls-1" d="M554.87,570.5c18.18-6.34,29.8-19.65,29.8-42.9a47.83,47.83,0,0,0-4.16-20.37l-1.55.34-3.84,9.32-3-5.11L570,508.2l-10-.78,6.69-7.54-2.37-9.8,2,.85c-10.57-7-25-10.24-41.8-10.24h-34c-11.2,0-12.68,1.48-12.68,12.68V619.74c0,8.87,1.69,10.56,10.57,10.56h7.39c8.88,0,10.57-1.69,10.57-10.56v-45h19.65l30,47.54c4.44,7.19,7,8,18.39,8h7c5.07,0,7.61-1.26,7.61-4,0-1.9-1.06-4.23-3.18-7.61Zm-30.43-19H506.27V503.93h18.17c18.6,0,29.8,7.4,29.8,23.67C554.24,543.66,543,551.48,524.44,551.48Z"/><polygon class="cls-2" points="559.96 507.42 570.01 508.2 570.01 508.2 572.12 511.78 575.12 516.89 578.97 507.57 580.51 507.23 588.81 505.4 581.14 498.86 582.11 488.83 573.52 494.11 564.28 490.08 566.65 499.88 559.96 507.42"/><polygon class="cls-1" points="590.86 475.21 591.89 476.99 592.68 475.09 594.68 474.65 593.12 473.31 593.32 471.27 591.57 472.35 589.69 471.52 590.17 473.52 588.81 475.06 590.86 475.21"/><polygon class="cls-1" points="613.01 487.4 611.26 488.47 609.38 487.65 609.86 489.65 608.5 491.18 610.54 491.34 611.58 493.11 612.37 491.21 614.37 490.77 612.81 489.44 613.01 487.4"/><path class="cls-1" d="M634.69,458.89c-31.26,11.69-49.3,33.53-49.3,33.53s21.94-19.38,50.44-29.53Z"/><path class="cls-1" d="M582.42,498.82s24-17.62,45-24.53l-.55-2.49S599.79,481.45,582.42,498.82Z"/><path class="cls-1" d="M602,491a1.07,1.07,0,1,0,1.07,1.07A1.07,1.07,0,0,0,602,491Z"/><path class="cls-1" d="M587.1,483.73a1.71,1.71,0,1,0-1.71-1.71A1.71,1.71,0,0,0,587.1,483.73Z"/><path class="cls-1" d="M607.21,466.52a1.29,1.29,0,1,0-1.29-1.29A1.29,1.29,0,0,0,607.21,466.52Z"/><path class="cls-1" d="M610.85,452.64a.58.58,0,0,0,0-1.16.58.58,0,0,0,0,1.16Z"/><path class="cls-1" d="M598.08,460.74a.72.72,0,1,0-.71-.72A.72.72,0,0,0,598.08,460.74Z"/><path class="cls-1" d="M624,477.55a.76.76,0,1,0,.75.76A.76.76,0,0,0,624,477.55Z"/><circle class="cls-1" cx="579.48" cy="482.93" r="0.8"/><path class="cls-1" d="M847.86,496.33a4,4,0,0,1,3.62,1.4h0a5.31,5.31,0,0,0,.44.4c.38.3.36.32.37.31a3.51,3.51,0,0,1,1.67-1.21c.19-.06.38-.12.56-.16a4.81,4.81,0,0,0-.81-.42,4.07,4.07,0,0,0-2.08-.25h0a1,1,0,0,1-1.21-.67,1,1,0,0,1,.67-1.2,7.68,7.68,0,0,0,1.26-.7q-3.11-1.36-3.53-5.46c-.46-4.52,1.51-10.72,3.72-14.67,1.16,2.66,2.15,7.3,4.58,8.76a1.42,1.42,0,0,0,1,.25,1.18,1.18,0,0,0,.71-.54h0c.74-1.07,1-3.29.37-6.59-.44-2.25-2.91-4.24-5.4-6.24a32.2,32.2,0,0,1-4.27-3.89,8.34,8.34,0,0,1-2-6.25,7.48,7.48,0,0,1,1.27-3.53,6.43,6.43,0,0,1,2.9-2.34,7.48,7.48,0,0,1,5.84.32,1,1,0,1,1-.79,1.8h0a5.54,5.54,0,0,0-4.32-.29,4.47,4.47,0,0,0-2,1.63,5.39,5.39,0,0,0-.93,2.6,6.41,6.41,0,0,0,1.56,4.79,29.75,29.75,0,0,0,4,3.62c2.76,2.23,5.52,4.45,6.1,7.41.75,3.86.32,6.61-.69,8.08h0a3.05,3.05,0,0,1-2,1.36,3.29,3.29,0,0,1-2.36-.49c-1.3-.78-2.65-2.5-3.72-5.22q-1.95,5.85-1.6,9.24c.25,2.43,1.46,3.83,3.62,4.23a7.87,7.87,0,0,0,5.13-1.14,13.31,13.31,0,0,0,4.73-4.53q2.34-3.9,1.58-10A49.29,49.29,0,0,0,861,462.08l-.48-1,1.05-.35a16.09,16.09,0,0,1,2.75-.66c.51-.08,1-.14,1.6-.19a3,3,0,0,0-.36-.35,3.32,3.32,0,0,0-1.54-.75l-.74-.15,0-.76a9,9,0,0,0-2.79-6.36,9.39,9.39,0,0,0-6.7-2.32h-.19c-5.45.33-8.6,5.52-10.34,12.11-1.82,6.88-2.1,15.23-1.86,21.43,0,.6.05,1.21.09,1.82l0,.88c.33,5.18.58,9.1-5.43,12.42h0a1,1,0,0,1-1.34-.38,1,1,0,0,1,.39-1.34c4.91-2.72,4.7-6.1,4.42-10.58l-.06-.88q0-.85-.09-1.86h0c-.25-6.34.05-14.91,1.92-22,1.95-7.37,5.61-13.19,12.14-13.57h.23a11.34,11.34,0,0,1,8.1,2.83,10.67,10.67,0,0,1,3.37,7,5.2,5.2,0,0,1,1.7,1,6.58,6.58,0,0,1,1.68,2.31l.62,1.35-1.49.05a22.75,22.75,0,0,0-3,.27c-.47.07-.92.16-1.35.26a49.55,49.55,0,0,1,4.5,14.24q.84,6.72-1.85,11.22a15.38,15.38,0,0,1-5.46,5.24,9.93,9.93,0,0,1-6,1.42,2.11,2.11,0,0,1-.26.35l.19.07a7.8,7.8,0,0,1,2.69,1.88l.11.14a1,1,0,0,1-.31,1.65,3,3,0,0,1-1.19.35,7.68,7.68,0,0,0-1.14.26,1.75,1.75,0,0,0-.8.6c-.78.94-1.2,1.45-3.09,0-.2-.16-.39-.34-.59-.53h0a2.31,2.31,0,0,0-2-.86,1,1,0,0,1-.24-2Z"/><path class="cls-3" d="M649.46,456.29h1.79a.75.75,0,0,0,.76-.76v-2h-.08a.8.8,0,0,0-.15-.21l-6.38-6.14-.15-.12-.15-.06h-.44l-.11,0,0,0-.14.11h0L638,453.27a.8.8,0,0,0-.15.21h-.08v2a.76.76,0,0,0,.76.76h1.79v2.95H639a.76.76,0,0,0-.54.22.74.74,0,0,0-.22.54v3.12a.76.76,0,0,0,.76.76h1.21l-2.65,29.53a11.77,11.77,0,0,1-4.92-2,.76.76,0,0,0-1,0,9.58,9.58,0,0,1-1.75,1,10.08,10.08,0,0,1-4,.84,11.26,11.26,0,0,1-6.12-2.09l0,0a.76.76,0,0,0-.89,1.23,12.84,12.84,0,0,0,7,2.4,11.88,11.88,0,0,0,6.19-1.82,12.71,12.71,0,0,0,6.35,2.08,11.79,11.79,0,0,0,6.43-1.82,11.86,11.86,0,0,0,6.2,1.83l.61,0a12,12,0,0,0,3.1-.66,14.32,14.32,0,0,0,2.87-1.41,11.88,11.88,0,0,0,6.19,1.82,12.84,12.84,0,0,0,7-2.4l.3-.5a.76.76,0,0,0-1.21-.71,11.26,11.26,0,0,1-6.12,2.09,10.08,10.08,0,0,1-4-.84,9.58,9.58,0,0,1-1.75-1,.75.75,0,0,0-.94,0,11.83,11.83,0,0,1-4.94,2l-2.66-29.53h1.21a.79.79,0,0,0,.54-.23.72.72,0,0,0,.22-.53V460a.76.76,0,0,0-.76-.76h-1.35v-2.95ZM657.2,497a11.17,11.17,0,0,1-6.12,2.09,10.13,10.13,0,0,1-5.74-1.82.77.77,0,0,0-.92,0,10.32,10.32,0,0,1-5.74,1.81,11.17,11.17,0,0,1-6.12-2.09.75.75,0,0,0-.94,0,9.58,9.58,0,0,1-1.75,1,10.08,10.08,0,0,1-4,.84,11.26,11.26,0,0,1-6.12-2.09.74.74,0,0,0-1.06.15.76.76,0,0,0,.15,1.06,12.9,12.9,0,0,0,7,2.4,11.88,11.88,0,0,0,6.19-1.82,12.58,12.58,0,0,0,6.58,2.08,11.86,11.86,0,0,0,6.2-1.82,11.86,11.86,0,0,0,6.2,1.82,12.58,12.58,0,0,0,6.58-2.08,11.88,11.88,0,0,0,6.19,1.82,12.9,12.9,0,0,0,7-2.4.77.77,0,0,0,.3-.5.76.76,0,0,0-1.21-.71,11.26,11.26,0,0,1-6.12,2.09,10.27,10.27,0,0,1-5.71-1.8.75.75,0,0,0-.94,0Zm-9.26-40.7v2.95h-6.12v-2.95h6.12Zm-8.23,4.46h10.34v1.61H639.71v-1.61Zm10.78-6.61v.63H639.27v-.63l5.61-5.42,5.61,5.42Zm-8.81,9.74h6.4l2.66,29.6a10.23,10.23,0,0,1-5.4-1.81.77.77,0,0,0-.92,0,10.28,10.28,0,0,1-5.4,1.81Z"/><path class="cls-1" d="M958.77,491.77a6.87,6.87,0,0,1-5.46,1.07c-2.52-.64-4.9-2.94-7.07-6.84-6.41-11.45-12.53-11.89-16.52-10.23-3.26,1.34-3.74,3.82-3.15,5.54a3.1,3.1,0,0,0,3.49,2.32.78.78,0,0,0-.41-1.51c-.58.15-1.3-.45-1.6-1.31-.18-.55-.56-2.42,2.27-3.59,5-2.05,9.85,1.16,14.54,9.55,2.4,4.28,5.11,6.84,8.07,7.59a7.28,7.28,0,0,0,1.85.24,9.13,9.13,0,0,0,4.83-1.5.78.78,0,0,0,.25-1.08A.79.79,0,0,0,958.77,491.77Z"/><path class="cls-1" d="M930.11,480.32a.77.77,0,0,0-.18,1.07.79.79,0,0,0,1,.24,1.72,1.72,0,0,1,.57.81c.72,1.62.84,4.85-1.15,8.65a14.82,14.82,0,0,1-12.88,7.65c-4.51.12-8.37-1.77-10.26-5a.79.79,0,0,0-1.08-.28.78.78,0,0,0-.28,1.07c2.13,3.65,6.32,5.8,11.25,5.8h.41a16.34,16.34,0,0,0,14.24-8.49c2.82-5.41,1.85-9.94.31-11.3A1.58,1.58,0,0,0,930.11,480.32Z"/><path class="cls-1" d="M956.59,499c-4.7,0-8.34-.66-12.52-9.19-.37-.75-.72-1.44-1-2.07a.79.79,0,0,0-1.4.73c.32.62.66,1.29,1,2,4.57,9.32,9,10.07,13.94,10.07a.79.79,0,1,0,0-1.57Z"/><path class="cls-1" d="M938.13,481a.78.78,0,1,0-.75,1.37,8.44,8.44,0,0,1,2.43,2.84.78.78,0,0,0,1.33-.83A9.2,9.2,0,0,0,938.13,481Z"/><path class="cls-1" d="M960.29,454.9c-.51-.24-1-.47-1.31-.67-.17-.1-.29-.32-.51-.75a9.93,9.93,0,0,0-2.9-3.55c-5.78-4.76-15.87-2.67-21.31-1.53a19.41,19.41,0,0,1-7.62.27c-.75-.1-1.53-.2-2.45-.26a12.31,12.31,0,0,0-7,1.54,1.05,1.05,0,0,0,.45,1.94c.83.08,2.78.41,3,1.67s0,1.52-2.09,4.24c-1.18,1.54-2.8,3.65-5.05,6.95a48.27,48.27,0,0,0-6.34,14.35,25.55,25.55,0,0,1-7.05,6.71,16.67,16.67,0,0,0-6.43,6.47,1,1,0,0,0,0,1.06,1.16,1.16,0,0,0,1.11.19,35.49,35.49,0,0,1,5.66-1.77,10.6,10.6,0,0,0,4.85-2.2,3.55,3.55,0,0,0,3.46,1.33,3.39,3.39,0,0,1,3.13,1.44.88.88,0,0,0,1,.33.9.9,0,0,0,.63-.87c0-1.1-.24-3.82-2.14-5.29a4.05,4.05,0,0,1-1.24-3.56c3.92-4,11.38-10.81,20-14.93a64.91,64.91,0,0,1,9.13-3.53,5.4,5.4,0,0,1-.2,3.52.9.9,0,0,0,.2.91.92.92,0,0,0,.88.27c2.57-.6,4.19-2.53,5.63-4.24,1.11-1.33,2.16-2.58,3.42-2.87a41.25,41.25,0,0,1,9.5-1c2.74,0,4.56,0,5.25-1.5C965.19,457.23,962.24,455.83,960.29,454.9ZM910.5,487.74a4.14,4.14,0,0,1,1.32,2.33,5,5,0,0,0-3.12-.75,2.16,2.16,0,0,1-2.06-.69,1.45,1.45,0,0,0-2.14-.34,9.54,9.54,0,0,1-4.23,1.92,28.56,28.56,0,0,0-4.13,1.17,17.11,17.11,0,0,1,4.83-4.23,24.51,24.51,0,0,0,5.39-4.52c-.26,1.27-.4,2.2-.47,2.67a.86.86,0,0,0,.5.9.84.84,0,0,0,.35.07.86.86,0,0,0,.65-.29c.19-.22.64-.73,1.32-1.46A4.85,4.85,0,0,0,910.5,487.74Zm52.15-28.8c-.27.57-1.85.58-3.85.6a43.69,43.69,0,0,0-9.84,1c-1.76.4-3,1.86-4.27,3.39a11.83,11.83,0,0,1-3.69,3.34,5.23,5.23,0,0,0-.49-4,3.59,3.59,0,0,0-2.51-1.54.78.78,0,0,0-.85.71.78.78,0,0,0,.71.85h.07a66.48,66.48,0,0,0-8.35,3.3c-9.88,4.7-18.22,12.83-21.72,16.53a49.71,49.71,0,0,1,7-17.49c2.23-3.26,3.83-5.35,5-6.88,2.08-2.72,2.78-3.63,2.39-5.51a3.61,3.61,0,0,0-2.81-2.61,11.28,11.28,0,0,1,4.66-.66c.87.07,1.63.16,2.36.26a20.85,20.85,0,0,0,8.15-.3c5.17-1.07,14.78-3.07,20,1.22a8.43,8.43,0,0,1,2.5,3.05,3,3,0,0,0,1.1,1.37,14.5,14.5,0,0,0,1.44.75C961.45,457.19,963.07,458.05,962.65,458.94Z"/><path class="cls-1" d="M954.45,455a2,2,0,0,0-2.13-1.07.8.8,0,0,0-.69.72.78.78,0,0,0,.06,1.56h.52c1.79,0,1.92-.16,2.12-.4l.24-.31-.07-.36Z"/><path class="cls-1" d="M813.86,495.64c-1.42-1.64-2.88-3.24-4.33-4.85L805.11,486l-4.48-4.71-4.54-4.65c-1.52-1.54-3.06-3.05-4.6-4.59s-3.09-3-4.65-4.53-3.14-3-4.71-4.48l-.66-.62-.6.61c-1.35,1.35-2.68,2.72-4,4.08s-2.67,2.73-4,4.11l0,.05c-1.39-1.84-2.78-3.68-4.2-5.49-1.52-2-3.08-3.92-4.62-5.87s-3.11-3.88-4.66-5.83-3.13-3.86-4.71-5.78l-.9-1.1-1,1.11c-2.2,2.51-4.42,5-6.59,7.54l-6.53,7.59-6.46,7.65c-1.77,2.08-3.52,4.19-5.26,6.3l-3.47-3.6L719.66,469l-1.15-1.16-1,1.2-3.38,3.88-3.34,3.91c-2.23,2.6-4.46,5.21-6.65,7.85s-4.39,5.27-6.56,7.93-4.31,5.34-6.43,8q3.69-3.59,7.3-7.26t7.18-7.38c2.39-2.46,4.73-5,7.09-7.45l3.52-3.75,2.38-2.58,3.57,3.83,4.69,5,1.25,1.31,1.17-1.39c2.15-2.56,4.32-5.09,6.44-7.67l6.38-7.72,6.32-7.77c1.81-2.21,3.59-4.46,5.37-6.7,1.33,1.47,2.67,3,4,4.41,1.69,1.83,3.36,3.67,5.07,5.48s3.39,3.64,5.12,5.43c1.58,1.68,3.2,3.33,4.81,5-2.61,2.72-5.21,5.46-7.76,8.24,2.91-2.48,5.77-5,8.61-7.55,1.43-1.26,2.84-2.55,4.25-3.83q1.79-1.6,3.55-3.24c1.27,1.38,2.54,2.77,3.85,4.12,1.49,1.57,3,3.15,4.49,4.69s3,3.11,4.55,4.64l4.61,4.58,4.67,4.52,4.73,4.46c1.6,1.46,3.19,2.93,4.82,4.37s3.26,2.87,4.92,4.26C816.7,498.92,815.3,497.27,813.86,495.64Z"/><path class="cls-1" d="M781.6,469.13l-9.23,8.81H776L775,480h1.36l-3.25,13.32,8.5-9.86,4.4,4.41-.84-5.14,2.52,1.26S779.92,475.84,781.6,469.13Z"/><path class="cls-1" d="M731.37,481.71l4.2,1.68-.84,6.19,8.6-8.34,1.46,3.41,3.67-2.83,3.57,9.12s4.19-12.27,5.56-13.21,6.51,2.38,6.51,2.38-6.62-6.89-10.81-25.24Z"/><path class="cls-1" d="M714.28,489.58l3.78-3,.94,3,2.1-4.41,1.57,2.52,3.29-3.83s-4.74-5.61-7-7.91C719,476,717,485,714.28,489.58Z"/><path class="cls-3" d="M791.44,516v0Z"/><path class="cls-3" d="M918.9,516h0v-1C918.91,515.28,918.91,515.62,918.9,516Z"/><path class="cls-3" d="M929.67,504v9h-7.49v-5.9h4.25v3.31l-2.26-1.87c-.59,3.35-.59,3.35,3.92,2.74v-5.65h-7.5v9.05h10.85V504.1h10.93V513h-7.5v-5.85c1.77.4,4.88-2.07,4.37,3l-2.6-1.6c-.13,1.07-.24,1.95-.37,3h4.49V505.6h-7.5v9h11V504h11.14v9.17h-7.54v-6c2,0,4.73-1.47,4.32,3.22l-2.35-1.8c-.87,3.31-.87,3.31,4.05,2.85.08-1.8.17-3.66.26-5.82h-8v9.14h10.82V504.06h11.21v9.06h-7.37v-6c2,.05,4.55-1.26,4.27,3.12l-2.7-1.6c-1,4.66,2.39,2.43,4.26,3.51v-6.39h-7.76v9H970V504h10.85v9.07h-7.43v-5.83h4.35v3.08L975,508.49c-1,4.62,2.1,2.89,4.21,3.16v-6.06h-7.36v9.07H982V503.25H600.92V504h10.2v9h-7.38v-5.89h4.36v3.12l-2.81-1.84v3.12h4.28V505.6h-7.42v9.12h10.72V504h11.07V513h-7.43v-5.78h4.27v3.06l-2.67-1.85c-.06,1.18-.1,2.07-.16,3.12h4.44v-6h-7.57v9h10.84V504h11.1v9h-7.47v-6c2,.3,5-1.48,4.16,3.1l-2.23-1.62c-.58,3.4-.58,3.4,4,2.82v-5.85H627.6v9.16h11.2V504h10.81v9.16H642v-6.07c2.21.09,5-1.33,4.57,3.14l-2.49-1.56c-.93,3.19-.93,3.19,3.87,2.85v-6c-1.27-.06-2.53-.14-3.79-.17s-2.34,0-3.77,0v9.36h11.12V504h10.93v9.06H655v-6c2,.1,4.71-1.17,4.25,3.35l-2.81-2.09c-.37,4.68,2.43,3.09,4.52,3.28v-6h-7.6V515H664V504h10.76v9h-7.49v-5.9h4.25v3.31l-2.25-1.87c-.59,3.35-.59,3.35,3.92,2.74v-5.65h-7.5v9.05h10.84V504.1h10.93V513h-7.5v-5.85c1.78.4,4.88-2.07,4.38,3l-2.6-1.6c-.13,1.07-.24,1.95-.38,3h4.5V505.6h-7.5v9h11V504h11.14v9.17h-7.55v-6c2,0,4.73-1.47,4.33,3.22l-2.35-1.8c-.88,3.31-.88,3.31,4,2.85.08-1.8.16-3.66.26-5.82h-8v9.14H702V504.06h11.2v9.06h-7.36v-6c2,.05,4.55-1.26,4.27,3.12l-2.71-1.6c-.95,4.66,2.4,2.43,4.27,3.51v-6.39h-7.77v9h11.16V504h10.84v9.07h-7.42v-5.83h4.34v3.08l-2.7-1.83c-1,4.62,2.09,2.89,4.21,3.16v-6.06H717v9.07h10.74V504h10.89v9H731.2v-5.89h4.37v3.12l-2.82-1.84v3.12H737V505.6h-7.42v9.12h10.72V504h11.08V513H744v-5.78h4.27v3.06l-2.66-1.85c-.06,1.18-.11,2.07-.16,3.12h4.43v-6h-7.56v9h10.83V504h11.1v9h-7.47v-6c2,.3,5-1.48,4.16,3.1l-2.23-1.62c-.58,3.4-.58,3.4,4,2.82v-5.85h-7.61v9.16h11.2V504h10.81v9.16H769.5v-6.07c2.21.09,5-1.33,4.57,3.14l-2.49-1.56c-.93,3.19-.93,3.19,3.87,2.85v-6c-1.27-.06-2.53-.14-3.79-.17s-2.34,0-3.77,0v9.36H779V504h10.93v9.06h-7.48v-6c2,.1,4.71-1.17,4.25,3.35l-2.81-2.09c-.37,4.68,2.43,3.09,4.52,3.28v-6h-7.6V515h10.62V504H802.2v9h-7.49v-5.9H799v3.31l-2.26-1.87c-.59,3.35-.59,3.35,3.92,2.74v-5.65h-7.5v9.05H804V504.1H814.9V513h-7.49v-5.85c1.77.4,4.88-2.07,4.37,3l-2.6-1.6c-.13,1.07-.24,1.95-.37,3h4.49V505.6h-7.5v9h11V504H827.9v9.17h-7.55v-6c2,0,4.73-1.47,4.33,3.22l-2.35-1.8c-.87,3.31-.87,3.31,4,2.85.08-1.8.16-3.66.26-5.82h-8v9.14h10.82V504.06h11.21v9.06h-7.37v-6c2,.05,4.55-1.26,4.27,3.12l-2.71-1.6c-1,4.66,2.4,2.43,4.27,3.51v-6.39h-7.76v9h11.15V504h10.85v9.07h-7.43v-5.83h4.35v3.08l-2.71-1.83c-1,4.62,2.09,2.89,4.21,3.16v-6.06h-7.36v9.07h10.74V504H866v9h-7.37v-5.89H863v3.12l-2.82-1.84v3.12h4.28V505.6h-7.41v9.12h10.71V504h11.08V513h-7.43v-5.78h4.26v3.06L873,508.42c-.06,1.18-.11,2.07-.16,3.12h4.43v-6h-7.56v9h10.83V504h11.1v9h-7.46v-6c2,.3,5-1.48,4.16,3.1l-2.23-1.62c-.58,3.4-.58,3.4,4,2.82v-5.85h-7.6v9.16h11.2V504h10.8v9.16H897v-6.07c2.21.09,4.95-1.33,4.58,3.14l-2.5-1.56c-.92,3.19-.92,3.19,3.88,2.85v-6c-1.27-.06-2.53-.14-3.8-.17s-2.33,0-3.76,0v9.36h11.11V504H917.4v9.06h-7.47v-6c2,.1,4.7-1.17,4.24,3.35l-2.81-2.09c-.37,4.68,2.44,3.09,4.52,3.28v-6h-7.6V515h10.63V504Z"/><path class="cls-3" d="M664,516v0Z"/></svg>